<svg id="Capa_1" data-name="Capa 1" xmlns="http://www.w3.org/2000/svg" viewBox="0 0 423.52 263.94"><path d="M360.72,140.85c-.69-1.7-2-3-2.93-4.52s-1-1.9.58-3c.95-.67,1.88-1.35,2.81-2,.51-.33,1-.66,1.52-1,1.89-1.27,2.21-1.2,3.52.68,2.27,3.28,4.59,6.53,6.8,9.84.6.9,1,1,1.9.36q34.45-24,69-48c4-2.79,8-2,10.77,2a82.87,82.87,0,0,0,5,6.94,3.74,3.74,0,0,0,.73,1.36,7,7,0,0,1-1.88,10.15L436.4,129l-42.69,29.68c-.28.2-.54.43-.81.65l-4.06,2.8c-.33.23-.65.46-.3.93,1.33,1.8,2.45,3.76,3.92,5.47a64.91,64.91,0,0,0,3.67,5.5c.84,1.32.78,1.76-.51,2.67q-2.49,1.76-5,3.49c-1.27.89-1.75.8-2.65-.49-2.43-3.48-4.87-7-7.26-10.47-.51-.76-.86-1-1.69-.33-1.61,1.24-3.35,2.31-5,3.52-1,.77-1.93.75-2.67-.3-.63-.89-1.16-.64-1.89-.12q-15.91,11.17-32.07,22a3.24,3.24,0,0,0-1.56,3.49,167.64,167.64,0,0,1,.73,24c-.15,6.28-.48,12.55-1.11,18.81a196.42,196.42,0,0,1-3.86,24.11c-.07.29-.1.6-.15.9-.66,2.59-1.24,5.21-2,7.77a1.52,1.52,0,0,0,.88,2.13q36.12,20.43,72.89,39.66,24.44,12.76,49.15,25l4,2.06c1.36.71,1.52,1.29.65,2.57A19.65,19.65,0,0,1,431.56,351q-46.71-23.42-92.4-48.76c-5.15-2.87-10.29-5.74-15.41-8.66-.91-.52-1.24-.42-1.66.57A119.06,119.06,0,0,1,302,326.91c-11.81,13.36-26.16,22.45-43.72,26.47-7.73,1.77-15,.55-22.35-1.6-13.78-4-25.31-11.69-35.19-22S183.57,307.36,178,294.28c-.47-1.11-.81-1.2-1.82-.62q-33.91,19.24-68.48,37.28Q87.92,341.29,68,351.24a19.64,19.64,0,0,1-25-6.66c-.94-1.42-.8-2,.7-2.75l3.93-2c11.61-5.66,23.12-11.52,34.61-17.42q35.87-18.44,71.09-38.06,8.29-4.64,16.55-9.32c.41-.23,1.08-.34.88-1.08-.75-2.78-1.51-5.57-2.27-8.35-.22-2.51-1-4.91-1.41-7.38A223,223,0,0,1,164,234.5c-.61-8.57-.86-17.15-.64-25.74a94.65,94.65,0,0,1,.77-11.41,3,3,0,0,0-1.44-3.3q-16.24-10.92-32.28-22.14c-.77-.54-1.23-.56-1.78.2-.82,1.11-1.73,1-2.79.23-1.63-1.22-3.36-2.3-5-3.52-.71-.54-1-.39-1.51.29-2.37,3.47-4.79,6.91-7.18,10.37-1.07,1.54-1.49,1.63-3,.56s-3.28-2.28-4.91-3.43c-1.14-.8-1.22-1.31-.47-2.48,1.2-1.9,2.71-3.59,3.73-5.61,1.48-1.7,2.6-3.67,3.93-5.47.35-.47,0-.7-.3-.93l-4.07-2.8c-4.85-3.4-9.7-6.82-14.57-10.21L41.61,113.7c-3.65-2.54-4.41-6.6-1.92-10.33a13.57,13.57,0,0,0,.67-1.25c.38-.12.48-.48.67-.76,1.6-2.27,3.14-4.58,4.78-6.81a7,7,0,0,1,9.89-1.69Q90.4,117,125.08,141.16c.9.63,1.3.54,1.89-.36,2.27-3.39,4.62-6.71,6.95-10.06,1.1-1.58,1.58-1.66,3.16-.59.57.39,1.16.76,1.73,1.13,1.05.76,2.07,1.54,3.14,2.25a1.53,1.53,0,0,1,.48,2.49c-1.07,1.5-2.1,3-3.14,4.56-1.43,2-2.84,4.12-4.31,6.15-.52.71-.37,1.07.32,1.53,1.59,1,3.13,2.16,4.7,3.24s1.77,1.38.88,3.15c-.38.74-.13,1,.45,1.45,2.75,1.88,5.48,3.8,8.22,5.69,1.73,1.2,3.48,2.38,5.47,3.74-.68-3.77-.92-7.3-1.33-10.8-.07-2.63-.2-5.26-.21-7.89,0-4.5.15-9,.41-13.47.09-.46.21-.92.26-1.39a149.63,149.63,0,0,1,9.45-39.73c.89-2.26,1.19-2.35,3.49-1.39A119.37,119.37,0,0,1,192.81,106a171.61,171.61,0,0,1,24.71,22.64,1.52,1.52,0,0,0,2.19.43,60.32,60.32,0,0,1,9-3.66c9.71-3.06,19.6-4.38,29.75-2.94a71.43,71.43,0,0,1,21.92,6.65,1.39,1.39,0,0,0,2-.39,170.69,170.69,0,0,1,18.68-17.89c9.84-8.14,20.36-15.19,32.21-20.13,1.8-.75,2.26-.58,3,1.18A148.23,148.23,0,0,1,345,125.14c.4,2.65.72,5.31,1.07,8a205.16,205.16,0,0,1,.22,21.62c-.41,3.51-.65,7-1.31,10.71a8.15,8.15,0,0,0,.75-.42c4.24-2.93,8.47-5.88,12.74-8.78.8-.54,1-1,.5-1.85-.75-1.34-.57-1.8.71-2.7,1.71-1.18,3.43-2.36,5.13-3.55.34-.24.84-.45.44-1A76.16,76.16,0,0,0,360.72,140.85ZM320.58,111c-.27-.13-.43,0-.55.24l-.3.21a45.73,45.73,0,0,0-6.88,5.92,147.9,147.9,0,0,0-19.77,24.9,36.78,36.78,0,0,0-3.05,5.12c-.48.55-.9,1.2-1.77,1.15a2.54,2.54,0,0,1-1.32-1.16l-2.81-4.12-.23-.3a.77.77,0,0,0-.08-.19,4.66,4.66,0,0,0-.15-.62c-1.18-2.83-2.35-5.67-2.46-8.81a1.62,1.62,0,0,0-1.09-1.47c-2.06-.91-4.08-1.92-6.17-2.75a42.71,42.71,0,0,0-9.06-2.69,5.65,5.65,0,0,0-2.86-.56,1.26,1.26,0,0,0-.35-.17,59.41,59.41,0,0,0-17.65-.81,9.08,9.08,0,0,0-3.19.43,26.64,26.64,0,0,0-5.73,1.11,2.26,2.26,0,0,0-.52,0,67.43,67.43,0,0,0-14.88,5.53,1.67,1.67,0,0,0-.93,1.71,15.12,15.12,0,0,1-.66,3.94c-.48,2-1.72,3.66-2.28,5.62-.39.25-.46.71-.7,1-1,1.51-1.74,3.26-3.4,4.26-.88.06-1.28-.61-1.76-1.16-.13-.27-.23-.55-.38-.81a164.8,164.8,0,0,0-17.94-24.47,75.14,75.14,0,0,0-10.92-10.33c-.4-.34-.67-.88-1.32-.77.06-.57-.46-.57-.75-.8l-.1,0,.12,0a.89.89,0,0,0,.75.8,2.38,2.38,0,0,0,1,1.05c.71.7,1.42,1.39,2.11,2.11A126.57,126.57,0,0,1,200.49,138c.84,1.43.73,1.87-.7,2.71A49.73,49.73,0,0,0,187.46,151c-7.06,8.15-11.59,17.63-14.58,27.9a30,30,0,0,0-1.49,6.56c-.22.88-.47,1.75-.64,2.65-.14.7-.39,1.25-1.17,1.35a1.41,1.41,0,0,1-1.52-1q-1.77-3.41-3.2-7c-4.94-12.37-6.53-25.29-6.17-38.5a143.21,143.21,0,0,1,6.81-39.58c.51-1.6.92-1.81,2.57-1.38a38.1,38.1,0,0,1,13.12,6.64c8,6,14.51,13.52,20.52,21.46,3.32,4.39,6.44,8.93,9.32,13.62.16.26.21,1.17.93.47.07,0,.18,0,.22-.1a24.52,24.52,0,0,0,4.23-10.78,4,4,0,0,0-1.19-3.62c-2.48-2.48-4.83-5.08-7.36-7.52a156.9,156.9,0,0,0-30-23.14A55.33,55.33,0,0,0,169,94.6c-.66-.32-1.35-.58-2-.95-.79-.46-1.08-.2-1.37.59-7.64,20.55-11,41.7-8.9,63.6A107.39,107.39,0,0,0,166.43,194a5.66,5.66,0,0,1,.46,3.38,79.45,79.45,0,0,0-.79,10.1,38.07,38.07,0,0,0-.19,6.58l0,4.12a29,29,0,0,0,0,4.93,164.67,164.67,0,0,0,1.53,20.32,163.17,163.17,0,0,0,2.62,16.45,168.65,168.65,0,0,0,7,25.28c5.49,15.18,13,29.22,24,41.22,11.18,12.23,24.61,20.71,40.93,24.26,2.91.63,5.85,1.48,8.85,1.16a72.78,72.78,0,0,0,37.27-15.34c10.35-8.05,18.38-18.1,24.83-29.44,8.37-14.73,13.64-30.58,16.94-47.14a163,163,0,0,0,2.61-16.44,138.3,138.3,0,0,0,1.31-14.23c.16-3.59.42-7.17.25-10.77,0-1.46,0-2.92,0-4.38a42.94,42.94,0,0,0-.21-7.08,78.48,78.48,0,0,0-.74-9.45,5.7,5.7,0,0,1,.37-3.4c7.28-15.35,10.29-31.64,10.4-48.51a135.2,135.2,0,0,0-2-23.41,148.09,148.09,0,0,0-7.51-27.91c-.34-.9-.69-1-1.49-.58-1.3.69-2.65,1.29-4,1.93a26.46,26.46,0,0,0-5.08,2.53c-15.05,8.51-28,19.63-39.62,32.33a1.82,1.82,0,0,0-.66,1.35,21.33,21.33,0,0,0,4.28,12c.4,1.11.74.55,1.08,0,2.3-3.83,4.81-7.53,7.45-11.13,6.5-8.88,13.48-17.31,22.35-24A38.09,38.09,0,0,1,332,102.05c1.5-.39,2-.18,2.43,1.07a141.63,141.63,0,0,1,6.83,48.27,90.82,90.82,0,0,1-6.15,30.29,74.2,74.2,0,0,1-3.15,6.84,1.42,1.42,0,0,1-1.41.95c-.68-.05-1-.5-1.24-1.13a13,13,0,0,1-.45-2.09,4.34,4.34,0,0,0-.05-.63,81.78,81.78,0,0,0-6.95-20.49C316.8,155,310,146.42,300,140.62c-1.24-.72-1.34-1.22-.56-2.55q2.94-5.06,6.32-9.84a114.88,114.88,0,0,1,14.13-16.61l.24-.31c.2,0,.37-.12.39-.35l.2-.13-.17-.06ZM122.42,165.13h0c-.41.37-1.21.66-.29,1.32,1.41,1,2.84,2,4.23,3,.51.37.86.41,1.31-.1a61.47,61.47,0,0,0,6.79-8.87,53,53,0,0,0,3.63-6.12c.29-.54.15-.84-.33-1.17-1.32-.9-2.64-1.8-3.92-2.76-.72-.55-1.14-.43-1.65.31-2.44,3.57-4.94,7.1-7.38,10.66-.48.7-1.2,1.27-1.33,2.18h0a.66.66,0,0,0-.52.77.64.64,0,0,0-.1.18A.49.49,0,0,0,122.42,165.13Zm255.16,0a.49.49,0,0,0-.45-.59.61.61,0,0,0-.09-.18.66.66,0,0,0-.52-.77h0c0-.09,0-.2,0-.26l-9-13c-.27-.4-.52-.47-.95-.16-1.43,1-2.88,2.05-4.35,3a.75.75,0,0,0-.31,1.17,51.39,51.39,0,0,0,3.62,6.11,61.47,61.47,0,0,0,6.79,8.87c.45.51.79.47,1.3.1,1.4-1,2.82-2,4.24-3,.92-.66.12-.95-.29-1.32Zm8.61-10.94,1-.22c.76,1.05,1.6,2.05,2.27,3.16.53.87,1,.67,1.62.2s1-.77.4-1.6c-1.56-2.12-3-4.31-4.54-6.47-1.9-2.74-3.84-5.45-5.68-8.23-.63-.94-1.06-.3-1.54,0s-1.15.56-.51,1.36,1.26,1.76,1.87,2.66c.26.38.64.85,0,1.23s-.88,0-1.19-.42c-.6-.9-1.26-1.76-1.85-2.67s-1.12-.25-1.58.09-1.41.45-.72,1.41c1.89,2.63,3.6,5.4,5.63,7.93,1.46,2.5,3.26,4.76,4.85,7.16.17.25.33.46.73.35,1.53-.45,1.84-1.41,1-2.76C387.33,156.36,386.2,155.58,386.19,154.19Zm-272.34.25a8.57,8.57,0,0,1-1.74,2.84c-1.1,1.64-1.08,1.79.67,2.72.44.24.69.2,1-.2l4.84-7.16c2.07-2.56,3.85-5.33,5.69-8,.65-1-.59-1-1-1.43s-.9-.69-1.37.05c-.6.95-1.28,1.85-1.92,2.78a.77.77,0,0,1-1.11.31c-.53-.32-.28-.76,0-1.12.63-.93,1.24-1.89,1.94-2.77s0-1-.51-1.36-.91-1-1.54,0c-1.84,2.77-3.78,5.49-5.68,8.23-1.5,2.15-3,4.33-4.53,6.45-.57.78-.36,1.15.36,1.6s1,.76,1.64-.14a13.44,13.44,0,0,1,2.48-3.28Zm-66.66-57c-2,2.36-3.6,5-5.36,7.49s-1.15,4.83,1.19,6.56c.88.65,1.25.42,1.79-.38,2-2.9,4-5.74,6-8.65a23.9,23.9,0,0,0,2.61-4c.75-.44,1-1.28,1.52-1.9s.28-.85-.25-1.24C51.76,93.2,48.81,94,47.19,97.45Zm399.42,1a.71.71,0,0,0,.06.25l8.91,12.93c.23.34.45.4.86.21a4.47,4.47,0,0,0,2.07-6.37,85.1,85.1,0,0,0-5.7-8c-1.6-3.43-4.58-4.28-7.46-2.12-.36.27-.8.5-.4,1C445.5,97.06,445.8,98,446.61,98.47ZM159.87,185.19c-.85-2.91-1.73-5.8-2.52-8.71a2.62,2.62,0,0,0-1.13-1.63c-3.19-2.16-6.36-4.36-9.54-6.54l-9-6.19c-.41-.28-.72-.58-1.14.07-1.06,1.62-2.19,3.2-3.29,4.8-.35.38-.68.79-1.06,1.13-.92.81-.89,1.3.23,2.06,8.13,5.51,16.2,11.11,24.3,16.68,1.61,1.11,3.24,2.18,4.86,3.27l.19-.17Zm180.26,0c-.64,1.6-1.29,3.21-2.05,5.13.66-.42,1-.62,1.31-.84q13.61-9.33,27.19-18.66c2.43-1.67,2.42-1.69.15-3.83-1-1.42-2-2.8-2.92-4.27-.54-.88-.92-1-1.85-.4-6.06,4.24-12.18,8.41-18.28,12.61-.36.24-.76.45-.87.92C342.11,179,341,182.06,340.13,185.19ZM172.62,280.43a9.64,9.64,0,0,0-.52-2c-.19-1.07-.56-1.29-1.59-.7-5.68,3.25-11.4,6.44-17.11,9.63q-48.16,26.85-97.55,51.38c-3.11,1.54-6.2,3.11-9.32,4.62-.72.35-.78.65-.24,1.21A16.88,16.88,0,0,0,67,348.8c10-5.12,20.07-10.21,30.08-15.35q38.7-19.92,76.57-41.38c2.82-1.59,2.81-1.6,1.5-4.54L173,281.16Zm154.76,0-.34.74-.57,1.64-.15.31-1.5,4.41a16.68,16.68,0,0,1-.81,1.9c-.46.84-.2,1.26.6,1.71q26.94,15.15,54.22,29.71,22.92,12.19,46.11,23.9a98.39,98.39,0,0,0,10.39,5,14.16,14.16,0,0,0,8.66.49,14.82,14.82,0,0,0,7.31-3.37c.57-.52,1.17-1,1.71-1.56,1.44-1.47,1.43-1.49-.36-2.37q-32.28-16-64.12-32.82c-14.89-7.91-29.72-15.92-44.42-24.18-4.84-2.72-9.69-5.41-14.51-8.16-1-.55-1.52-.73-1.71.62A13.32,13.32,0,0,0,327.38,280.43Zm-165-120.18a69.73,69.73,0,0,0,6.35,23.3,15.72,15.72,0,0,0,.78-2.38c4.26-16.11,11.54-30.34,25.34-40.48a13,13,0,0,1,1.63-1.06c1.23-.56,1.21-1.24.54-2.31A127.34,127.34,0,0,0,178.69,114a66.1,66.1,0,0,0-9.51-7.83c-1.42-1-1.46-.93-2,.63a133.53,133.53,0,0,0-3.59,15,140.59,140.59,0,0,0-2.17,17.47,119.26,119.26,0,0,0,.3,17.63C161.87,158,161.72,159.21,162.38,160.25ZM337.62,160c.71-.88.53-2,.59-3a125.75,125.75,0,0,0,.41-15c-.26-4.27-.52-8.54-1.09-12.79a150.37,150.37,0,0,0-4.81-22.69c-.38-1.3-.84-1.1-1.67-.56a60.64,60.64,0,0,0-8.51,6.81,120.36,120.36,0,0,0-19.25,24.11c-1.13,1.82-1.15,1.81.56,2.94l1.31.85a60.51,60.51,0,0,1,7.91,6.92c8.16,8.76,13.26,19.17,16.61,30.54.53,1.8,1,3.62,1.47,5.43a28,28,0,0,0,2.28-5C335.5,172.54,337.3,166.44,337.62,160ZM133.78,136c-.51.13-.65.59-.88.93q-11.12,15.94-22.21,31.91c-.63.92-1.9,1.88-1.66,2.77s1.69,1.33,2.53,2.06,1.21.46,1.77-.34q11.36-16.41,22.77-32.78c1.38-2,1.37-2-.63-3.38Zm232.47,0-.53.35-1.82,1.25c-1.39,1-1.38.95-.45,2.29q10.95,15.75,21.9,31.49c.66,1,1.22,2.5,2.08,2.69s1.94-1.22,3-1.8c.8-.44.72-.82.25-1.49-2.67-3.79-5.3-7.61-7.95-11.41L367,136.82C366.83,136.51,366.7,136.1,366.25,136Zm-22.69,37.41c.35-.21.61-.36.86-.53,5.67-3.93,11.31-7.88,17-11.77,1.62-1.11,0-1.73-.29-2.5-.36-1-.95-.3-1.39,0-4.07,2.8-8.05,5.74-12.22,8.39-2.32,1.47-3.92,3.14-4,6C343.53,173,343.55,173.1,343.56,173.37Zm-187.24,0a5.91,5.91,0,0,0-3.67-6.2,10.87,10.87,0,0,1-1.28-.89c-3.75-2.59-7.51-5.16-11.23-7.79-.71-.5-1.12-.49-1.45.33a3.14,3.14,0,0,1-.34.55c-.59.74-.57,1.23.33,1.82,2.68,1.76,5.28,3.64,7.92,5.47Zm244.2-28.17c-.5-1.9-.91-3.44-1.29-5a1.2,1.2,0,0,0-.42-.77l-4.4-3c.5,1.91.92,3.53,1.33,5.15a1,1,0,0,0,.44.62Zm-301,0,4.35-3a1,1,0,0,0,.43-.62c.41-1.62.84-3.24,1.33-5.15l-4.4,3a1.14,1.14,0,0,0-.42.77C100.39,141.74,100,143.28,99.48,145.18Zm342.7-29.07c-.42-1.7-.74-3.08-1.11-4.45-.1-.41-.07-.9-.47-1.18l-4.5-3.13c.5,2,.92,3.57,1.33,5.2a1,1,0,0,0,.44.61Zm-384.37,0c1.72-1.23,3.58-2,4.55-3.4s1-3.36,1.55-5.41l-4.37,3a1,1,0,0,0-.45.61Zm372.28-4.67c.59,2.12.69,4.12,1.66,5.51s2.8,2.1,4.5,3.29c-.48-1.89-.89-3.43-1.27-5a1.28,1.28,0,0,0-.52-.85ZM406.45,141c-.48-1.89-.88-3.48-1.27-5.07a1,1,0,0,0-.41-.63l-4.41-3.06c.51,2,.93,3.58,1.34,5.21a1.18,1.18,0,0,0,.55.69Zm-312.81-.33c3.91-1.37,5.65-4.21,5.74-8.25l-4.09,2.83a1,1,0,0,0-.45.6C94.44,137.48,94,139.11,93.64,140.67Zm-35.8-37.12a8.06,8.06,0,0,0-5.72,8.25c1.36-.93,2.66-1.84,4-2.73a1.34,1.34,0,0,0,.56-.83C57.07,106.7,57.44,105.15,57.84,103.55Zm23.79,29.17c1.65-1.13,3-2,4.28-2.94a1.2,1.2,0,0,0,.48-.57c.43-1.64.82-3.29,1.29-5.21l-4.18,2.85a1.19,1.19,0,0,0-.54.69C82.54,129.16,82.13,130.78,81.63,132.72ZM63.84,120c3.89-1.39,5.67-4.21,5.76-8.26-1.37.94-2.72,1.87-4.07,2.78a1.3,1.3,0,0,0-.52.85C64.63,116.88,64.23,118.41,63.84,120Zm348.6,4.12c.6,4.69,2.29,7.07,5.84,8.31-.41-1.63-.81-3.21-1.22-4.79a1.35,1.35,0,0,0-.62-.79C415.16,126,413.88,125.07,412.44,124.08Zm5.79-4.27c.49,1.92.9,3.44,1.27,5a1.17,1.17,0,0,0,.43.76l4.4,3c-.5-1.94-.93-3.59-1.35-5.24a1,1,0,0,0-.48-.59ZM75.67,128.58c1.61-1.12,2.93-2,4.25-2.93a1.13,1.13,0,0,0,.55-.69c.39-1.61.8-3.22,1.29-5.16l-4.39,3a1,1,0,0,0-.39.65C76.57,125.07,76.16,126.66,75.67,128.58Zm348.69-12.8c.54,4.69,2.15,7,5.85,8.36-.4-1.59-.8-3.13-1.18-4.68a1.44,1.44,0,0,0-.65-.91C427.09,117.68,425.82,116.79,424.36,115.78Zm-348.54-.12c-1.67,1.15-3,2.08-4.37,3a1,1,0,0,0-.42.62c-.41,1.63-.83,3.25-1.32,5.16l4.38-3a1.19,1.19,0,0,0,.44-.76C74.91,119.11,75.32,117.57,75.82,115.66Zm318.75,33.67c-.5-1.88-.93-3.45-1.31-5a1.33,1.33,0,0,0-.56-.82c-1.35-.92-2.69-1.85-4.25-2.93.49,1.89.91,3.55,1.33,5.2a1,1,0,0,0,.45.6ZM448,111.89c-.66-4.83-2.33-7.17-5.84-8.32.39,1.58.77,3.13,1.17,4.67a1.18,1.18,0,0,0,.46.75C445.15,109.9,446.49,110.84,448,111.89ZM111.54,140.56c-1.22.84-2.26,1.54-3.28,2.26-.49.34-1.21.64-1.37,1.11-.56,1.67-.93,3.4-1.44,5.39l4.31-3a1,1,0,0,0,.46-.6C110.64,144.1,111.06,142.44,111.54,140.56Zm295.11-12.22c-.09,4.14,1.91,6.77,5.68,8.24-.42-1.67-.81-3.3-1.24-4.92a1.24,1.24,0,0,0-.48-.59C409.31,130.15,408,129.26,406.65,128.34Zm-318.8,8.17c3.62-1.41,5.57-4.08,5.52-8A7.94,7.94,0,0,0,87.85,136.51Zm22.34,41c.51-.3.67-.88,1-1.27.54-.55.55-1-.19-1.37s-1.64-1.13-2.46-1.69c-.23-.16-.5-.52-.77-.19a5.35,5.35,0,0,0-1.2,1.81c-.13.5.7.63,1.07,1a7.17,7.17,0,0,0,.63.45Zm279.52,0,.8-.5a18.79,18.79,0,0,1,2.13-1.47c.94-.49.8-.9.29-1.68-.62-1-1.13-1.24-2.05-.38-.57.53-1.29.88-1.89,1.37-.26.2-.89.27-.59.81S389.27,177,389.71,177.58Zm-253.79-45c-.43.61-.88,1.18-1.24,1.79s.24.67.52.87c.72.54,1.52,1,2.21,1.57s1,.33,1.5-.28c.86-1,.74-1.63-.42-2.23a20.23,20.23,0,0,1-1.92-1.3Zm229.48,1.87a10,10,0,0,0-1.22-1.65c-.41-.37-.74.23-1.08.44-.76.47-1.49,1-2.23,1.53-.26.19-.6.3-.42.8.53,1.46,1.32,1.77,2.57.92.64-.44,1.28-.88,1.9-1.34C365.12,135,365.4,134.92,365.4,134.46Z" transform="translate(-38.24 -90.29)" fill="#0a0e0e"/><path d="M212,144.26c-.72.7-.77-.21-.93-.47-2.88-4.69-6-9.23-9.32-13.62-6-7.94-12.48-15.45-20.52-21.46a38.1,38.1,0,0,0-13.12-6.64c-1.65-.43-2.06-.22-2.57,1.38A143.21,143.21,0,0,0,158.69,143c-.36,13.21,1.23,26.13,6.17,38.5q1.42,3.56,3.2,7a1.41,1.41,0,0,0,1.52,1c.78-.1,1-.65,1.17-1.35.17-.9.42-1.77.64-2.65.53-.07.5-.55.62-.89A131.41,131.41,0,0,1,182.17,163c3.3-5.48,7-10.62,12.32-14.39,3.4-2.42,7.13-3.66,11.37-2.73,1.45.31,2.69,1.13,4.12,1.48.48.55.88,1.22,1.76,1.16a52.62,52.62,0,0,0-.36,8c.38,8.53,3.29,15.86,10.25,21.13,3.11,2.34,6.53,4.27,9.73,6.5,4.62,3.22,9.28,6.41,12.59,11.16.09-.12.2-.2.23-.31.14-.64.29-1.27.39-1.91.59-3.61-.8-6.74-2.4-9.8-3.18-6.05-7.33-11.45-11.43-16.89a25.58,25.58,0,0,1-4.53-22.51,50.78,50.78,0,0,1,4.25-10.58l.52-.51,2.65-1a31.68,31.68,0,0,1,8-2.16c.19.74.41,1.48.57,2.23q3.91,18.06,7.82,36.11c.42,1.95.88,3.88,1.32,5.82a6.22,6.22,0,0,0,.7-2l8.94-41.2c.38-.63.92-.3,1.35-.16,2.23.74,4.44,1.53,6.65,2.3l.52.52c1.09,2.31,2.29,4.56,3.16,7,3.5,9.77,2.43,18.81-4.13,27.06-2.08,2.61-4,5.35-5.91,8.09a54.22,54.22,0,0,0-6.54,11.65,11.76,11.76,0,0,0-.1,8.35,26.36,26.36,0,0,1,5.74-6.15,133.69,133.69,0,0,1,14.39-10,25.33,25.33,0,0,0,11.18-14.65,39.64,39.64,0,0,0,.93-16.11c.87,0,1.29-.6,1.77-1.15a1.22,1.22,0,0,0,.85-.25c4.57-2.37,9-1.91,13.33.65a32.31,32.31,0,0,1,9,8.48c5.83,7.58,9.82,16.17,13.45,24.95.7,1.69,1.05,3.53,2.14,5.05a13,13,0,0,0,.45,2.09c.28.63.56,1.08,1.24,1.13a1.42,1.42,0,0,0,1.41-.95,74.2,74.2,0,0,0,3.15-6.84,90.82,90.82,0,0,0,6.15-30.29,141.63,141.63,0,0,0-6.83-48.27c-.39-1.25-.93-1.46-2.43-1.07a38.09,38.09,0,0,0-13.23,6.72c-8.87,6.67-15.85,15.1-22.35,24-2.64,3.6-5.15,7.3-7.45,11.13-.34.58-.68,1.14-1.08,0a1.45,1.45,0,0,0,.08-.5,21.77,21.77,0,0,1,2.21-13.36,50.83,50.83,0,0,1,11.21-14.68c7-6.65,14.88-12,23.15-16.87,1.5-.89,3.18-1.52,4.43-2.82,1.32-.64,2.67-1.24,4-1.93.8-.43,1.15-.32,1.49.58a148.09,148.09,0,0,1,7.51,27.91,135.2,135.2,0,0,1,2,23.41c-.11,16.87-3.12,33.16-10.4,48.51a5.7,5.7,0,0,0-.37,3.4,78.48,78.48,0,0,1,.74,9.45,35.66,35.66,0,0,0,.21,7.08c0,1.46,0,2.92,0,4.38-.39.11-.36.44-.37.73-.11,2-.19,4-.34,6-.26,3.65-.66,7.29-1.17,10.92-.41,2.9-.79,5.81-1.19,8.71l-.28.53a3.91,3.91,0,0,0-.41.3,30.4,30.4,0,0,1-15.83,8.7,23.36,23.36,0,0,0-13.68,8.19,34.78,34.78,0,0,0-7,13.93c1.29-1.11,2.39-2.41,3.64-3.52,4.94-4.42,10.42-7.83,17.19-8.53,4.34-.46,8.6-1.11,12.55-3.11a7.35,7.35,0,0,1-.13,1.16,152.77,152.77,0,0,1-11,29,111.74,111.74,0,0,1-16.27,24.19,81.6,81.6,0,0,1-23.56,18.56,57.89,57.89,0,0,1-44.63,3.26c-9.54-3.29-17.74-8.8-25.11-15.59-9.27-8.53-16.35-18.7-22.08-29.84a146.39,146.39,0,0,1-9.69-24.1,30.48,30.48,0,0,1-1.73-6.64,27,27,0,0,0,10,2.79,30.49,30.49,0,0,1,17.9,7.22,60.94,60.94,0,0,1,5.73,5.45,37.53,37.53,0,0,0-5.22-11.54c-3.79-5.55-8.74-9.46-15.47-10.82a30.87,30.87,0,0,1-7.74-2.62,39.11,39.11,0,0,1-8.77-6.44l-.28-.52c-.14-2.5-.73-4.95-1.05-7.42-.77-6.12-1.48-12.25-1.64-18.43,0-.3,0-.62-.38-.73l0-4.12a30.16,30.16,0,0,0,.19-6.58,79.45,79.45,0,0,1,.79-10.1,5.66,5.66,0,0,0-.46-3.38,107.39,107.39,0,0,1-9.69-36.19c-2.06-21.9,1.26-43,8.9-63.6.29-.79.58-1,1.37-.59.63.37,1.32.63,2,.95,0,.37.36.46.62.59,3.56,1.88,7,3.91,10.44,6.06,9.26,5.84,18,12.29,24.87,21C210,128.68,213.51,135.67,212,144.26Zm91.47,9.49c-.07.15-.07.27.1.35,2.71,9.07,1.88,17.76-2.93,26-4.5,7.69-11.28,12.95-18.86,17.3a93.07,93.07,0,0,1-14.24,6.35c-5.15,1.89-8.2,5.66-8.48,11.21-.26,5.15,2.15,9,6.63,11.51a13.19,13.19,0,0,0,15.15-1.82,12.1,12.1,0,0,0,3-14c-.48-1.07-.2-1.46.63-2a57.66,57.66,0,0,0,16.72-16.72c6.13-9.65,8.61-20,5.56-31.29a37.21,37.21,0,0,0-2.77-7.13c-.13-.26-.13-1.08-.82-.45-.05.23-.07.45.2.57A.37.37,0,0,1,303.43,153.75ZM197,152.55a7.43,7.43,0,0,0,1-2.78,6.8,6.8,0,0,0-1.38,2.42,12.08,12.08,0,0,0-1.44,3A34.65,34.65,0,0,0,192,168.12c-.46,10.62,3.38,19.77,9.85,28a60.21,60.21,0,0,0,13.79,12.57c.75.5,1.06.9.56,1.83a10.05,10.05,0,0,0-1.07,4.26,12.83,12.83,0,0,0,15.31,13.07c6.63-1.26,11.21-7,10.52-13.41-.61-5.66-3.93-9.16-9.19-11-9.32-3.23-17.93-7.73-25.19-14.5-7.77-7.25-12.16-16-11.56-26.91A30.92,30.92,0,0,1,197,152.55Zm129.08,57.37-.34.16A90.91,90.91,0,0,1,296.07,222c-11.83,2.4-20.15,9.16-25.14,20.11-3.84,8.44-5.43,17.41-6.2,26.56a14.15,14.15,0,0,0,1.18,7.64,11.08,11.08,0,0,1,3.11-6.7,26.07,26.07,0,0,1,3.55-3.42c5.72-4.62,12.21-7.88,18.85-10.92,6.26-2.87,12.87-4.95,18.88-8.37,15.5-8.82,23.32-22,22.69-40a25.1,25.1,0,0,0-.72-5.39A29.07,29.07,0,0,1,326.05,209.92Zm-152.1,0a28.82,28.82,0,0,1-6.16-8.23,2.27,2.27,0,0,0-.24.47A42,42,0,0,0,172,229.6c4.72,8.7,12,14.59,20.72,18.85,6.47,3.15,13.34,5.4,19.78,8.61,6,3,11.81,6.08,16.71,10.67,2.44,2.29,4.62,4.8,4.81,8.46.89-1.6,1.38-4.62,1.25-7.6-.1-1.16-.18-2.33-.32-3.49a77.85,77.85,0,0,0-5.24-21.63C225,232.32,217,224.93,205,222.24a119.6,119.6,0,0,1-11.78-3.16A99.28,99.28,0,0,1,174,209.91Zm97.19,112.52a26.75,26.75,0,0,0,4.66-.37c10.36-1.44,18.83-6.51,26-13.88,9.6-9.87,15.82-21.84,20.93-34.46a5,5,0,0,0-2.79-6.67,5.09,5.09,0,0,0-6.62,2.95c-1.06,2.46-2.09,4.95-3.22,7.38-3.71,8-8.07,15.54-14,22.1-4.85,5.37-10.46,9.7-17.52,11.66-9.95,2.78-19,.31-27.44-5.2a1.72,1.72,0,0,0-2.29,0,35.43,35.43,0,0,1-17.41,6.23c-8.62.63-16-2.47-22.48-7.87S197.82,292.23,193.76,285a148.35,148.35,0,0,1-7.11-15,5.05,5.05,0,0,0-8.25-1.86,5.18,5.18,0,0,0-1,6,125.74,125.74,0,0,0,12.6,24,64.92,64.92,0,0,0,15.41,16.26,40.7,40.7,0,0,0,22.7,8,43.31,43.31,0,0,0,20.83-4.73,2.13,2.13,0,0,1,2.14,0A45.44,45.44,0,0,0,271.14,322.43Zm-21.07-40.66c-2.29,0-4.59-.08-6.88,0a34.59,34.59,0,0,0-7.84,1.07c-1.91.52-2.11,1-1,2.68a24.23,24.23,0,0,0,9.1,7.95,13.79,13.79,0,0,0,12.42.28,24.14,24.14,0,0,0,9.09-7.37c2-2.58,1.78-3.17-1.47-3.81A60.07,60.07,0,0,0,250.07,281.77Zm23.49,12.49a12.76,12.76,0,0,1,9-4.31,2.39,2.39,0,0,0,2.32-1.76,2.46,2.46,0,0,0-.79-2.82,2.5,2.5,0,0,0-2.91-.33A13.86,13.86,0,0,0,273.56,294.26Zm-46.91.31a14.21,14.21,0,0,0-8.25-9.66,2.49,2.49,0,0,0-3.38,1.9,2.52,2.52,0,0,0,2.28,3.13A14.74,14.74,0,0,1,222,291,16.48,16.48,0,0,1,226.65,294.57Zm48.9,5.25a12.6,12.6,0,0,1,7.54-1.65c.82.1,1.61.34,2.42.49a2.66,2.66,0,0,0,3.21-2.42,2.58,2.58,0,0,0-2.75-2.76,8.52,8.52,0,0,0-1.8.27A13.23,13.23,0,0,0,275.55,299.82Zm-51.08,0a13.61,13.61,0,0,0-10.36-6.35,2.44,2.44,0,0,0-2.56,1.44,2.46,2.46,0,0,0,.24,2.71,2.42,2.42,0,0,0,2.75,1A12.56,12.56,0,0,1,224.47,299.82Zm78.86-147.16A4.57,4.57,0,0,0,302,149.8C302.31,150.8,302.4,151.93,303.33,152.66Z" transform="translate(-38.24 -90.29)" fill="#fefdfd"/><path d="M172.9,261.27a30.48,30.48,0,0,0,1.73,6.64,146.39,146.39,0,0,0,9.69,24.1c5.73,11.14,12.81,21.31,22.08,29.84,7.37,6.79,15.57,12.3,25.11,15.59a57.89,57.89,0,0,0,44.63-3.26,81.6,81.6,0,0,0,23.56-18.56A111.74,111.74,0,0,0,316,291.43a152.77,152.77,0,0,0,11-29,7.35,7.35,0,0,0,.13-1.16c.09-.1.18-.19.26-.29l2.51-1.07c-3.3,16.56-8.57,32.41-16.94,47.14-6.45,11.34-14.48,21.39-24.83,29.44a72.78,72.78,0,0,1-37.27,15.34c-3,.32-5.94-.53-8.85-1.16-16.32-3.55-29.75-12-40.93-24.26-11-12-18.46-26-24-41.22a168.65,168.65,0,0,1-7-25.28l2.5,1.07Z" transform="translate(-38.24 -90.29)" fill="#b0b0b0"/><path d="M337.62,160c-.32,6.42-2.12,12.52-4.19,18.55a28,28,0,0,1-2.28,5c-.49-1.81-.94-3.63-1.47-5.43-3.35-11.37-8.45-21.78-16.61-30.54a60.51,60.51,0,0,0-7.91-6.92,2.23,2.23,0,0,1,.25-.59c4.72-6.2,9.6-12.26,15.52-17.4a91.39,91.39,0,0,1,8.61-6.44c.59-.4.93-.36,1.25.41a42.35,42.35,0,0,1,1.66,5.46,154.54,154.54,0,0,1,4.08,21.47,148.06,148.06,0,0,1,1,14.87C337.51,159,337.58,159.5,337.62,160Z" transform="translate(-38.24 -90.29)" fill="#c82428"/><path d="M194.85,140.69c-13.8,10.14-21.08,24.37-25.34,40.48a15.72,15.72,0,0,1-.78,2.38,69.73,69.73,0,0,1-6.35-23.3c.13-3.28.2-6.57.41-9.84.19-3,.38-6,.86-9,.8-4.93,1.53-9.89,2.76-14.74.83-3.27,1.63-6.54,2.72-9.73.34-1,.71-1.07,1.55-.52a83.86,83.86,0,0,1,11.63,9.29,85.7,85.7,0,0,1,6.32,6.88A75.55,75.55,0,0,1,194.85,140.69Z" transform="translate(-38.24 -90.29)" fill="#c82428"/><path d="M451.3,346.9a14.82,14.82,0,0,1-7.31,3.37c-.68-1.11-1.92-1.34-3-1.87-13.94-7-27.9-13.93-41.75-21.11-9-4.69-18.06-9.35-27-14.18-6.49-3.51-13-6.94-19.5-10.48-8-4.35-15.91-8.79-23.88-13.15-1.32-.72-2.5-1.73-4.06-2l1.5-4.41.15-.31.57-1.64c.47.21.95.4,1.4.65,7.08,3.94,14.13,7.94,21.23,11.83q33,18.11,66.49,35.22c3.7,1.89,7.36,3.87,11.17,5.53l0,0a1.68,1.68,0,0,0,1.06.54l0,0a110.86,110.86,0,0,0,10.91,5.44,7.38,7.38,0,0,0,1,.77c3.41,1.69,6.83,3.36,10.24,5C450.87,346.32,451.28,346.4,451.3,346.9Z" transform="translate(-38.24 -90.29)" fill="#d9d9d9"/><path d="M56,350.35a16.5,16.5,0,0,1-7.27-3.45c0-.63.61-.63,1-.83L59.93,341a.85.85,0,0,0,.55-.51c2.06-1,4.13-1.93,6.17-3a34.05,34.05,0,0,0,5-2.63l0,0a1.68,1.68,0,0,0,1.06-.54l0,0c.59-.26,1.2-.49,1.77-.79q10.71-5.44,21.41-10.93,34-17.51,67.43-36.23c3.21-1.79,6.35-3.7,9.68-5.29l2.22,6.37a2.19,2.19,0,0,0-1.33.44c-2.67,1.5-5.33,3-8,4.51-7.35,4-14.69,8.1-22.07,12.07q-14.2,7.65-28.48,15.17-8.9,4.71-17.85,9.31c-4.15,2.14-8.35,4.17-12.51,6.31q-13.35,6.86-26.85,13.45C57.32,349.16,56.27,349.3,56,350.35Z" transform="translate(-38.24 -90.29)" fill="#d9d9d9"/><path d="M288.26,148.52a39.64,39.64,0,0,1-.93,16.11,25.33,25.33,0,0,1-11.18,14.65,133.69,133.69,0,0,0-14.39,10,26.36,26.36,0,0,0-5.74,6.15,11.76,11.76,0,0,1,.1-8.35,54.22,54.22,0,0,1,6.54-11.65c1.9-2.74,3.83-5.48,5.91-8.09,6.56-8.25,7.63-17.29,4.13-27.06-.87-2.42-2.07-4.67-3.16-7a43.42,43.42,0,0,1,9.22,5.44c1.77,1.23,3.08,3,5.06,4a.77.77,0,0,1,.08.19l.23.3,2.81,4.12A2.54,2.54,0,0,0,288.26,148.52Z" transform="translate(-38.24 -90.29)" fill="#c9272a"/><path d="M230.46,133.35a50.78,50.78,0,0,0-4.25,10.58,25.58,25.58,0,0,0,4.53,22.51c4.1,5.44,8.25,10.84,11.43,16.89,1.6,3.06,3,6.19,2.4,9.8-.1.64-.25,1.27-.39,1.91,0,.11-.14.19-.23.31-3.31-4.75-8-7.94-12.59-11.16-3.2-2.23-6.62-4.16-9.73-6.5-7-5.27-9.87-12.6-10.25-21.13a52.62,52.62,0,0,1,.36-8c1.66-1,2.38-2.75,3.4-4.26.24-.34.31-.8.7-1,.4.08.64-.19.88-.43A32.31,32.31,0,0,1,221,139,44.85,44.85,0,0,1,230.46,133.35Z" transform="translate(-38.24 -90.29)" fill="#c9272a"/><path d="M56,350.35c.3-1.05,1.35-1.19,2.1-1.56q13.5-6.59,26.85-13.45c4.16-2.14,8.36-4.17,12.51-6.31q9-4.61,17.85-9.31,14.27-7.55,28.48-15.17c7.38-4,14.72-8,22.07-12.07,2.69-1.48,5.35-3,8-4.51a2.19,2.19,0,0,1,1.33-.44c1.31,2.94,1.32,3-1.5,4.54q-37.91,21.38-76.57,41.38c-10,5.14-20.06,10.23-30.08,15.35A16.51,16.51,0,0,1,56,350.35Z" transform="translate(-38.24 -90.29)" fill="#fbfbfb"/><path d="M324.82,287.53c1.56.22,2.74,1.23,4.06,2,8,4.36,15.9,8.8,23.88,13.15,6.48,3.54,13,7,19.5,10.48,8.95,4.83,18,9.49,27,14.18,13.85,7.18,27.81,14.12,41.75,21.11,1.05.53,2.29.76,3,1.87a14.16,14.16,0,0,1-8.66-.49,98.39,98.39,0,0,1-10.39-5q-23.18-11.72-46.11-23.9-27.3-14.52-54.22-29.71c-.8-.45-1.06-.87-.6-1.71A16.68,16.68,0,0,0,324.82,287.53Z" transform="translate(-38.24 -90.29)" fill="#fbfbfb"/><path d="M451.3,346.9c0-.5-.43-.58-.78-.75-3.41-1.68-6.83-3.35-10.24-5a7.38,7.38,0,0,1-1-.77c-2.52-1.57-5.22-2.78-7.88-4.09a10.07,10.07,0,0,0-3-1.35l0,0c-.21-.46-.62-.52-1.06-.54l0,0c-.28-.56-.87-.67-1.36-.92-6.39-3.3-12.81-6.54-19.18-9.89-9.56-5-19.07-10.11-28.61-15.16-10.5-5.56-20.89-11.32-31.28-17.08-6.52-3.61-13-7.28-19.52-10.92a13.32,13.32,0,0,1,.51-2c.19-1.35.76-1.17,1.71-.62,4.82,2.75,9.67,5.44,14.51,8.16,14.7,8.26,29.53,16.27,44.42,24.18q31.8,16.91,64.12,32.82c1.79.88,1.8.9.36,2.37C452.47,345.89,451.87,346.38,451.3,346.9Z" transform="translate(-38.24 -90.29)" fill="#a3a3a3"/><path d="M60.48,340.48a.85.85,0,0,1-.55.51l-10.21,5.08c-.41.2-1,.2-1,.83a16.58,16.58,0,0,1-2.41-2.33c-.54-.56-.48-.86.24-1.21,3.12-1.51,6.21-3.08,9.32-4.62q49.35-24.58,97.55-51.38c5.71-3.19,11.43-6.38,17.11-9.63,1-.59,1.4-.37,1.59.7a9.64,9.64,0,0,1,.52,2c-.28.13-.56.25-.82.39-7.67,4.31-15.33,8.65-23,12.93q-20.4,11.34-41.06,22.23c-10.59,5.57-21.24,11-31.85,16.54a10.66,10.66,0,0,0-3.2,1.88l0,0c-.44,0-.85.08-1.06.54l0,0A96.14,96.14,0,0,0,60.48,340.48Z" transform="translate(-38.24 -90.29)" fill="#a3a3a3"/><path d="M194.85,140.69a75.55,75.55,0,0,0-6.22-8.12,85.7,85.7,0,0,0-6.32-6.88,83.86,83.86,0,0,0-11.63-9.29c-.84-.55-1.21-.5-1.55.52-1.09,3.19-1.89,6.46-2.72,9.73-1.23,4.85-2,9.81-2.76,14.74-.48,3-.67,6-.86,9-.21,3.27-.28,6.56-.41,9.84-.66-1-.51-2.25-.61-3.38a119.26,119.26,0,0,1-.3-17.63,140.59,140.59,0,0,1,2.17-17.47,133.53,133.53,0,0,1,3.59-15c.49-1.56.53-1.59,2-.63a66.1,66.1,0,0,1,9.51,7.83A127.34,127.34,0,0,1,197,137.32c.67,1.07.69,1.75-.54,2.31A13,13,0,0,0,194.85,140.69Z" transform="translate(-38.24 -90.29)" fill="#8d1b1e"/><path d="M337.62,160c0-.52-.11-1-.12-1.55a148.06,148.06,0,0,0-1-14.87,154.54,154.54,0,0,0-4.08-21.47,42.35,42.35,0,0,0-1.66-5.46c-.32-.77-.66-.81-1.25-.41a91.39,91.39,0,0,0-8.61,6.44c-5.92,5.14-10.8,11.2-15.52,17.4a2.23,2.23,0,0,0-.25.59l-1.31-.85c-1.71-1.13-1.69-1.12-.56-2.94a120.36,120.36,0,0,1,19.25-24.11,60.64,60.64,0,0,1,8.51-6.81c.83-.54,1.29-.74,1.67.56a150.37,150.37,0,0,1,4.81,22.69c.57,4.25.83,8.52,1.09,12.79a125.75,125.75,0,0,1-.41,15C338.15,158,338.33,159.14,337.62,160Z" transform="translate(-38.24 -90.29)" fill="#8d1b1e"/><path d="M328.83,186.25c-1.09-1.52-1.44-3.36-2.14-5.05-3.63-8.78-7.62-17.37-13.45-24.95a32.31,32.31,0,0,0-9-8.48c-4.34-2.56-8.76-3-13.33-.65a1.22,1.22,0,0,1-.85.25,36.78,36.78,0,0,1,3.05-5.12,147.9,147.9,0,0,1,19.77-24.9,45.73,45.73,0,0,1,6.88-5.92l.2.19a114.88,114.88,0,0,0-14.13,16.61q-3.37,4.78-6.32,9.84c-.78,1.33-.68,1.83.56,2.55,9.94,5.8,16.76,14.37,21.79,24.51a81.78,81.78,0,0,1,6.95,20.49A4.34,4.34,0,0,1,328.83,186.25Z" transform="translate(-38.24 -90.29)" fill="#b0b0b0"/><path d="M210,147.36c-1.43-.35-2.67-1.17-4.12-1.48-4.24-.93-8,.31-11.37,2.73-5.3,3.77-9,8.91-12.32,14.39A131.41,131.41,0,0,0,172,184.57c-.12.34-.09.82-.62.89a30,30,0,0,1,1.49-6.56c3-10.27,7.52-19.75,14.58-27.9a49.73,49.73,0,0,1,12.33-10.28c1.43-.84,1.54-1.28.7-2.71a126.57,126.57,0,0,0-17.91-23.89c-.69-.72-1.4-1.41-2.11-2.11l.27-.26a75.14,75.14,0,0,1,10.92,10.33,164.8,164.8,0,0,1,17.94,24.47C209.75,146.81,209.85,147.09,210,147.36Z" transform="translate(-38.24 -90.29)" fill="#b0b0b0"/><path d="M133.78,136l1.69,1.17c2,1.39,2,1.39.63,3.38q-11.4,16.38-22.77,32.78c-.56.8-1,1-1.77.34s-2.3-1.21-2.53-2.06,1-1.85,1.66-2.77q11.09-16,22.21-31.91C133.13,136.56,133.27,136.1,133.78,136Z" transform="translate(-38.24 -90.29)" fill="#d9d9d9"/><path d="M366.25,136c.45.14.58.55.79.86l15.69,22.51c2.65,3.8,5.28,7.62,7.95,11.41.47.67.55,1-.25,1.49-1.06.58-2,2-3,1.8s-1.42-1.73-2.08-2.69q-11-15.74-21.9-31.49c-.93-1.34-.94-1.33.45-2.29l1.82-1.25Z" transform="translate(-38.24 -90.29)" fill="#d9d9d9"/><path d="M340.13,185.19c.84-3.13,2-6.17,2.68-9.34.11-.47.51-.68.87-.92,6.1-4.2,12.22-8.37,18.28-12.61.93-.64,1.31-.48,1.85.4.9,1.47,1.94,2.85,2.92,4.27a1.89,1.89,0,0,1-.87,1.1q-4.2,2.92-8.43,5.8c-4.78,3.25-9.56,6.52-14.39,9.72C342.13,184.21,341.31,185.06,340.13,185.19Z" transform="translate(-38.24 -90.29)" fill="#d9d9d9"/><path d="M133.27,167c1.1-1.6,2.23-3.18,3.29-4.8.42-.65.73-.35,1.14-.07l9,6.19c3.18,2.18,6.35,4.38,9.54,6.54a2.62,2.62,0,0,1,1.13,1.63c.79,2.91,1.67,5.8,2.52,8.71-.54.1-.89-.28-1.28-.54q-3.34-2.21-6.68-4.45c-5.35-3.65-10.72-7.27-16-11C135,168.57,133.69,168.25,133.27,167Z" transform="translate(-38.24 -90.29)" fill="#d9d9d9"/><path d="M212,144.26c1.55-8.59-2-15.58-7-22-6.83-8.7-15.61-15.15-24.87-21-3.4-2.15-6.88-4.18-10.44-6.06-.26-.13-.58-.22-.62-.59a55.33,55.33,0,0,1,8.89,4.5,156.9,156.9,0,0,1,30,23.14c2.53,2.44,4.88,5,7.36,7.52a4,4,0,0,1,1.19,3.62,24.52,24.52,0,0,1-4.23,10.78C212.14,144.22,212,144.23,212,144.26Z" transform="translate(-38.24 -90.29)" fill="#b0b0b0"/><path d="M328.94,95.68c-1.25,1.3-2.93,1.93-4.43,2.82-8.27,4.88-16.18,10.22-23.15,16.87a50.83,50.83,0,0,0-11.21,14.68,21.77,21.77,0,0,0-2.21,13.36,1.45,1.45,0,0,1-.08.5,21.33,21.33,0,0,1-4.28-12,1.82,1.82,0,0,1,.66-1.35c11.63-12.7,24.57-23.82,39.62-32.33A26.46,26.46,0,0,1,328.94,95.68Z" transform="translate(-38.24 -90.29)" fill="#b0b0b0"/><path d="M230.46,133.35A44.85,44.85,0,0,0,221,139a32.31,32.31,0,0,0-4.27,3.74c-.24.24-.48.51-.88.43.56-2,1.8-3.63,2.28-5.62a15.12,15.12,0,0,0,.66-3.94,1.67,1.67,0,0,1,.93-1.71,67.43,67.43,0,0,1,14.88-5.53,2.26,2.26,0,0,1,.52,0c-.26.4-.51.8-.78,1.2a37.16,37.16,0,0,0-3.35,5.23Z" transform="translate(-38.24 -90.29)" fill="#8d1b1e"/><path d="M283.82,142.75c-2-.94-3.29-2.74-5.06-4a43.42,43.42,0,0,0-9.22-5.44l-.52-.52c-.22-.41-.4-.85-.66-1.24q-1.73-2.6-3.47-5.17A42.71,42.71,0,0,1,274,129.1c2.09.83,4.11,1.84,6.17,2.75a1.62,1.62,0,0,1,1.09,1.47c.11,3.14,1.28,6,2.46,8.81A4.66,4.66,0,0,1,283.82,142.75Z" transform="translate(-38.24 -90.29)" fill="#8d1b1e"/><path d="M340.13,185.19c1.18-.13,2-1,2.91-1.58,4.83-3.2,9.61-6.47,14.39-9.72q4.23-2.88,8.43-5.8a1.89,1.89,0,0,0,.87-1.1c2.27,2.14,2.28,2.16-.15,3.83q-13.59,9.35-27.19,18.66c-.32.22-.65.42-1.31.84C338.84,188.4,339.49,186.79,340.13,185.19Z" transform="translate(-38.24 -90.29)" fill="#fbfbfb"/><path d="M133.27,167c.42,1.26,1.69,1.58,2.61,2.23,5.31,3.71,10.68,7.33,16,11q3.33,2.25,6.68,4.45c.39.26.74.64,1.28.54l1.92,4.77-.19.17c-1.62-1.09-3.25-2.16-4.86-3.27-8.1-5.57-16.17-11.17-24.3-16.68-1.12-.76-1.15-1.25-.23-2.06C132.59,167.78,132.92,167.37,133.27,167Z" transform="translate(-38.24 -90.29)" fill="#fbfbfb"/><path d="M452.81,97.46a85.1,85.1,0,0,1,5.7,8,4.47,4.47,0,0,1-2.07,6.37c-.41.19-.63.13-.86-.21l-8.91-12.93a.71.71,0,0,1-.06-.25C448.55,97.4,450.51,96.38,452.81,97.46Z" transform="translate(-38.24 -90.29)" fill="#d6981f"/><path d="M53.39,98.47a23.9,23.9,0,0,1-2.61,4c-2,2.91-4,5.75-6,8.65-.54.8-.91,1-1.79.38-2.34-1.73-2.86-4.17-1.19-6.56s3.39-5.13,5.36-7.49a6.37,6.37,0,0,1,3.91-.15C51.91,97.62,52.48,98.38,53.39,98.47Z" transform="translate(-38.24 -90.29)" fill="#d6981f"/><path d="M240.84,125.3a9.08,9.08,0,0,1,3.19-.43,59.41,59.41,0,0,1,17.65.81,1.26,1.26,0,0,1,.35.17,26.71,26.71,0,0,1-1.06,4.32,57,57,0,0,0-10.19-1.29c-3,0-6,.4-9,.57C241.47,128.07,241.16,126.68,240.84,125.3Z" transform="translate(-38.24 -90.29)" fill="#8d1b1e"/><path d="M377.87,166.45c-1.42,1-2.84,2-4.24,3-.51.37-.85.41-1.3-.1a61.47,61.47,0,0,1-6.79-8.87c.13-.68.74-.8,1.24-1A6.72,6.72,0,0,1,375,162c.44.59.66,1.43,1.53,1.64h0c0,.39,0,.74.52.77a.61.61,0,0,1,.09.18c-.09.38.06.58.45.59h0C377.46,165.62,377.88,166,377.87,166.45Z" transform="translate(-38.24 -90.29)" fill="#d6981f"/><path d="M134.46,160.49a61.47,61.47,0,0,1-6.79,8.87c-.45.51-.8.47-1.31.1-1.39-1-2.82-2-4.23-3,0-.46.41-.83.29-1.32h0c.39,0,.54-.21.44-.59a.64.64,0,0,1,.1-.18c.49,0,.54-.38.52-.77h0c.81-.13,1-.9,1.39-1.43a6.84,6.84,0,0,1,4.95-3.16C131.54,158.81,133.25,159,134.46,160.49Z" transform="translate(-38.24 -90.29)" fill="#d6981f"/><path d="M113.06,149.26c1.9-2.74,3.84-5.46,5.68-8.23.63-.95,1.06-.29,1.54,0s1.16.55.51,1.36-1.31,1.84-1.94,2.77c-.25.36-.5.8,0,1.12A.77.77,0,0,0,120,146c.64-.93,1.32-1.83,1.92-2.78.47-.74,1-.48,1.37-.05s1.64.47,1,1.43c-1.84,2.72-3.62,5.49-5.69,8-2-.9-2.71-.69-4,1.08a6,6,0,0,1-.71.72l-.84-.55a22.63,22.63,0,0,0,1.12-2A1.93,1.93,0,0,0,113.06,149.26Z" transform="translate(-38.24 -90.29)" fill="#956a18"/><path d="M387.19,154l-1,.22c-.42,0-.59-.26-.8-.54-1.34-1.72-2-1.89-4-1-2-2.53-3.74-5.3-5.63-7.93-.69-1,.3-1.09.72-1.41s1-1,1.58-.09,1.25,1.77,1.85,2.67c.31.45.7.74,1.19.42s.22-.85,0-1.23c-.61-.9-1.2-1.81-1.87-2.66s0-1.06.51-1.36.91-1,1.54,0c1.84,2.78,3.78,5.49,5.68,8.23a2,2,0,0,0-1.08,2.69C386.15,152.74,386.83,153.24,387.19,154Z" transform="translate(-38.24 -90.29)" fill="#956a18"/><path d="M327.38,280.43c6.51,3.64,13,7.31,19.52,10.92,10.39,5.76,20.78,11.52,31.28,17.08,9.54,5.05,19.05,10.14,28.61,15.16,6.37,3.35,12.79,6.59,19.18,9.89.49.25,1.08.36,1.36.92-3.81-1.66-7.47-3.64-11.17-5.53q-33.53-17.06-66.49-35.22c-7.1-3.89-14.15-7.89-21.23-11.83-.45-.25-.93-.44-1.4-.65Z" transform="translate(-38.24 -90.29)" fill="#4b4b4b"/><path d="M72.67,334.4a10.66,10.66,0,0,1,3.2-1.88c10.61-5.53,21.26-11,31.85-16.54q20.66-10.89,41.06-22.23c7.69-4.28,15.35-8.62,23-12.93.26-.14.54-.26.82-.39l.34.73c-3.33,1.59-6.47,3.5-9.68,5.29q-33.43,18.65-67.43,36.23-10.69,5.51-21.41,10.93C73.87,333.91,73.26,334.14,72.67,334.4Z" transform="translate(-38.24 -90.29)" fill="#4b4b4b"/><path d="M376.52,163.59c-.87-.21-1.09-1.05-1.53-1.64a6.72,6.72,0,0,0-8.21-2.46c-.5.2-1.11.32-1.24,1a51.39,51.39,0,0,1-3.62-6.11.75.75,0,0,1,.31-1.17c1.47-1,2.92-2,4.35-3,.43-.31.68-.24.95.16l9,13C376.55,163.39,376.52,163.5,376.52,163.59Z" transform="translate(-38.24 -90.29)" fill="#956a18"/><path d="M134.46,160.49c-1.21-1.53-2.92-1.68-4.64-1.49a6.84,6.84,0,0,0-4.95,3.16c-.37.53-.58,1.3-1.39,1.43.13-.91.85-1.48,1.33-2.18,2.44-3.56,4.94-7.09,7.38-10.66.51-.74.93-.86,1.65-.31,1.28,1,2.6,1.86,3.92,2.76.48.33.62.63.33,1.17A53,53,0,0,1,134.46,160.49Z" transform="translate(-38.24 -90.29)" fill="#956a18"/><path d="M343.56,173.37c0-.27,0-.35,0-.44.07-2.83,1.67-4.5,4-6,4.17-2.65,8.15-5.59,12.22-8.39.44-.3,1-1,1.39,0,.26.77,1.91,1.39.29,2.5-5.7,3.89-11.34,7.84-17,11.77C344.17,173,343.91,173.16,343.56,173.37Z" transform="translate(-38.24 -90.29)" fill="#a3a3a3"/><path d="M156.32,173.34l-9.72-6.71c-2.64-1.83-5.24-3.71-7.92-5.47-.9-.59-.92-1.08-.33-1.82a3.14,3.14,0,0,0,.34-.55c.33-.82.74-.83,1.45-.33,3.72,2.63,7.48,5.2,11.23,7.79a10.87,10.87,0,0,0,1.28.89A5.91,5.91,0,0,1,156.32,173.34Z" transform="translate(-38.24 -90.29)" fill="#a3a3a3"/><path d="M240.84,125.3c.32,1.38.63,2.77.94,4.15l-.11.27a31.68,31.68,0,0,0-8,2.16l-2.65,1a37.16,37.16,0,0,1,3.35-5.23c.27-.4.52-.8.78-1.2A26.64,26.64,0,0,1,240.84,125.3Z" transform="translate(-38.24 -90.29)" fill="#b0b0b0"/><path d="M172.63,261l-2.5-1.07a163.17,163.17,0,0,1-2.62-16.45l1.51,1.33.28.52C170.11,250.6,171.56,255.75,172.63,261Z" transform="translate(-38.24 -90.29)" fill="#8d1b1e"/><path d="M329.87,259.91,327.36,261c.27-1.22.52-2.44.81-3.66.94-4,1.9-8,2.52-12l.28-.53,1.51-1.31A163,163,0,0,1,329.87,259.91Z" transform="translate(-38.24 -90.29)" fill="#8d1b1e"/><path d="M261,130.17a26.71,26.71,0,0,0,1.06-4.32,5.65,5.65,0,0,1,2.86.56q1.74,2.58,3.47,5.17c.26.39.44.83.66,1.24-2.21-.77-4.42-1.56-6.65-2.3-.43-.14-1-.47-1.35.16C261,130.51,261,130.34,261,130.17Z" transform="translate(-38.24 -90.29)" fill="#b0b0b0"/><path d="M169,244.79l-1.51-1.33A164.67,164.67,0,0,1,166,223.14a29,29,0,0,1,0-4.93c.39.11.37.43.38.73.16,6.18.87,12.31,1.64,18.43C168.29,239.84,168.88,242.29,169,244.79Z" transform="translate(-38.24 -90.29)" fill="#b0b0b0"/><path d="M332.48,243.47,331,244.78c.4-2.9.78-5.81,1.19-8.71.51-3.63.91-7.27,1.17-10.92.15-2,.23-4,.34-6,0-.29,0-.62.37-.73.17,3.6-.09,7.18-.25,10.77A138.3,138.3,0,0,1,332.48,243.47Z" transform="translate(-38.24 -90.29)" fill="#b0b0b0"/><path d="M381.41,152.64c1.94-.88,2.64-.71,4,1,.21.28.38.58.8.54,0,1.39,1.14,2.17,1.79,3.2.85,1.35.54,2.31-1,2.76-.4.11-.56-.1-.73-.35C384.67,157.4,382.87,155.14,381.41,152.64Z" transform="translate(-38.24 -90.29)" fill="#d6981f"/><path d="M113.85,154.44a6,6,0,0,0,.71-.72c1.31-1.77,2.07-2,4-1.08l-4.84,7.16c-.27.4-.52.44-1,.2-1.75-.93-1.77-1.08-.67-2.72A8.57,8.57,0,0,0,113.85,154.44Z" transform="translate(-38.24 -90.29)" fill="#d6981f"/><path d="M400.52,145.17l-4.34-3a1,1,0,0,1-.44-.62c-.41-1.62-.83-3.24-1.33-5.15l4.4,3a1.2,1.2,0,0,1,.42.77C399.61,141.73,400,143.27,400.52,145.17Z" transform="translate(-38.24 -90.29)" fill="#f4f4f4"/><path d="M99.48,145.18c.5-1.9.91-3.44,1.29-5a1.14,1.14,0,0,1,.42-.77l4.4-3c-.49,1.91-.92,3.53-1.33,5.15a1,1,0,0,1-.43.62Z" transform="translate(-38.24 -90.29)" fill="#f4f4f4"/><path d="M442.18,116.11l-4.31-3a1,1,0,0,1-.44-.61c-.41-1.63-.83-3.25-1.33-5.2l4.5,3.13c.4.28.37.77.47,1.18C441.44,113,441.76,114.41,442.18,116.11Z" transform="translate(-38.24 -90.29)" fill="#f4f4f4"/><path d="M57.81,116.16,59.09,111a1,1,0,0,1,.45-.61l4.37-3c-.54,2.05-.6,4-1.55,5.41S59.53,114.93,57.81,116.16Z" transform="translate(-38.24 -90.29)" fill="#f4f4f4"/><path d="M430.09,111.49l4.37,3a1.28,1.28,0,0,1,.52.85c.38,1.54.79,3.08,1.27,5-1.7-1.19-3.55-1.92-4.5-3.29S430.68,113.61,430.09,111.49Z" transform="translate(-38.24 -90.29)" fill="#f4f4f4"/><path d="M406.45,141l-4.2-2.86a1.18,1.18,0,0,1-.55-.69c-.41-1.63-.83-3.25-1.34-5.21l4.41,3.06a1,1,0,0,1,.41.63C405.57,137.52,406,139.11,406.45,141Z" transform="translate(-38.24 -90.29)" fill="#f4f4f4"/><path d="M93.64,140.67c.39-1.56.8-3.19,1.2-4.82a1,1,0,0,1,.45-.6l4.09-2.83C99.29,136.46,97.55,139.3,93.64,140.67Z" transform="translate(-38.24 -90.29)" fill="#f4f4f4"/><path d="M57.84,103.55c-.4,1.6-.77,3.15-1.17,4.69a1.34,1.34,0,0,1-.56.83c-1.33.89-2.63,1.8-4,2.73A8.06,8.06,0,0,1,57.84,103.55Z" transform="translate(-38.24 -90.29)" fill="#f4f4f4"/><path d="M81.63,132.72c.5-1.94.91-3.56,1.33-5.18a1.19,1.19,0,0,1,.54-.69L87.68,124c-.47,1.92-.86,3.57-1.29,5.21a1.2,1.2,0,0,1-.48.57C84.6,130.69,83.28,131.59,81.63,132.72Z" transform="translate(-38.24 -90.29)" fill="#f4f4f4"/><path d="M113.06,149.26a1.93,1.93,0,0,1,1.07,2.66,22.63,22.63,0,0,1-1.12,2,13.44,13.44,0,0,0-2.48,3.28c-.59.9-1,.54-1.64.14s-.93-.82-.36-1.6C110.08,153.59,111.56,151.41,113.06,149.26Z" transform="translate(-38.24 -90.29)" fill="#d6981f"/><path d="M387.19,154c-.36-.73-1-1.23-1.33-2a2,2,0,0,1,1.08-2.69c1.51,2.16,3,4.35,4.54,6.47.61.83.25,1.15-.4,1.6s-1.09.67-1.62-.2C388.79,156,388,155,387.19,154Z" transform="translate(-38.24 -90.29)" fill="#d6981f"/><path d="M63.84,120c.39-1.55.79-3.08,1.17-4.63a1.3,1.3,0,0,1,.52-.85c1.35-.91,2.7-1.84,4.07-2.78C69.51,115.75,67.73,118.57,63.84,120Z" transform="translate(-38.24 -90.29)" fill="#f4f4f4"/><path d="M412.44,124.08c1.44,1,2.72,1.87,4,2.73a1.35,1.35,0,0,1,.62.79c.41,1.58.81,3.16,1.22,4.79C414.73,131.15,413,128.77,412.44,124.08Z" transform="translate(-38.24 -90.29)" fill="#f4f4f4"/><path d="M418.23,119.81l4.27,2.93a1,1,0,0,1,.48.59c.42,1.65.85,3.3,1.35,5.24l-4.4-3a1.17,1.17,0,0,1-.43-.76C419.13,123.25,418.72,121.73,418.23,119.81Z" transform="translate(-38.24 -90.29)" fill="#f4f4f4"/><path d="M75.67,128.58c.49-1.92.9-3.51,1.31-5.09a1,1,0,0,1,.39-.65l4.39-3c-.49,1.94-.9,3.55-1.29,5.16a1.13,1.13,0,0,1-.55.69C78.6,126.56,77.28,127.46,75.67,128.58Z" transform="translate(-38.24 -90.29)" fill="#f4f4f4"/><path d="M424.36,115.78c1.46,1,2.73,1.9,4,2.77a1.44,1.44,0,0,1,.65.91c.38,1.55.78,3.09,1.18,4.68C426.51,122.76,424.9,120.47,424.36,115.78Z" transform="translate(-38.24 -90.29)" fill="#f4f4f4"/><path d="M75.82,115.66c-.5,1.91-.91,3.45-1.29,5a1.19,1.19,0,0,1-.44.76l-4.38,3c.49-1.91.91-3.53,1.32-5.16a1,1,0,0,1,.42-.62C72.81,117.74,74.15,116.81,75.82,115.66Z" transform="translate(-38.24 -90.29)" fill="#f4f4f4"/><path d="M394.57,149.33l-4.34-3a1,1,0,0,1-.45-.6c-.42-1.65-.84-3.31-1.33-5.2,1.56,1.08,2.9,2,4.25,2.93a1.33,1.33,0,0,1,.56.82C393.64,145.88,394.07,147.45,394.57,149.33Z" transform="translate(-38.24 -90.29)" fill="#f4f4f4"/><path d="M448,111.89c-1.51-1-2.85-2-4.21-2.9a1.18,1.18,0,0,1-.46-.75c-.4-1.54-.78-3.09-1.17-4.67C445.67,104.72,447.34,107.06,448,111.89Z" transform="translate(-38.24 -90.29)" fill="#f4f4f4"/><path d="M111.54,140.56c-.48,1.88-.9,3.54-1.32,5.2a1,1,0,0,1-.46.6l-4.31,3c.51-2,.88-3.72,1.44-5.39.16-.47.88-.77,1.37-1.11C109.28,142.1,110.32,141.4,111.54,140.56Z" transform="translate(-38.24 -90.29)" fill="#f4f4f4"/><path d="M406.65,128.34c1.34.92,2.66,1.81,4,2.73a1.24,1.24,0,0,1,.48.59c.43,1.62.82,3.25,1.24,4.92C408.56,135.11,406.56,132.48,406.65,128.34Z" transform="translate(-38.24 -90.29)" fill="#f4f4f4"/><path d="M87.85,136.51a7.94,7.94,0,0,1,5.52-8C93.42,132.43,91.47,135.1,87.85,136.51Z" transform="translate(-38.24 -90.29)" fill="#f4f4f4"/><path d="M53.39,98.47c-.91-.09-1.48-.85-2.29-1.17a6.37,6.37,0,0,0-3.91.15c1.62-3.43,4.57-4.25,7.47-2.12.53.39.71.71.25,1.24S54.14,98,53.39,98.47Z" transform="translate(-38.24 -90.29)" fill="#956a18"/><path d="M452.81,97.46c-2.3-1.08-4.26-.06-6.2,1-.81-.5-1.11-1.41-1.66-2.12-.4-.51,0-.74.4-1C448.23,93.18,451.21,94,452.81,97.46Z" transform="translate(-38.24 -90.29)" fill="#956a18"/><path d="M110.19,177.54l-1.88-1.28a7.17,7.17,0,0,1-.63-.45c-.37-.35-1.2-.48-1.07-1a5.35,5.35,0,0,1,1.2-1.81c.27-.33.54,0,.77.19.82.56,1.6,1.19,2.46,1.69s.73.82.19,1.37C110.86,176.66,110.7,177.24,110.19,177.54Z" transform="translate(-38.24 -90.29)" fill="#f4f4f4"/><path d="M389.71,177.58c-.44-.62-.93-1.2-1.31-1.85s.33-.61.59-.81c.6-.49,1.32-.84,1.89-1.37.92-.86,1.43-.57,2.05.38.51.78.65,1.19-.29,1.68a18.79,18.79,0,0,0-2.13,1.47Z" transform="translate(-38.24 -90.29)" fill="#f4f4f4"/><path d="M135.92,132.59l.65.42a20.23,20.23,0,0,0,1.92,1.3c1.16.6,1.28,1.21.42,2.23-.52.61-.81.87-1.5.28s-1.49-1-2.21-1.57c-.28-.2-.82-.36-.52-.87S135.49,133.2,135.92,132.59Z" transform="translate(-38.24 -90.29)" fill="#a3a3a3"/><path d="M365.4,134.46c0,.46-.28.56-.48.7-.62.46-1.26.9-1.9,1.34-1.25.85-2,.54-2.57-.92-.18-.5.16-.61.42-.8.74-.52,1.47-1.06,2.23-1.53.34-.21.67-.81,1.08-.44A10,10,0,0,1,365.4,134.46Z" transform="translate(-38.24 -90.29)" fill="#a3a3a3"/><path d="M334.09,214.09a35.66,35.66,0,0,1-.21-7.08A42.94,42.94,0,0,1,334.09,214.09Z" transform="translate(-38.24 -90.29)" fill="#b0b0b0"/><path d="M166.1,207.51a30.16,30.16,0,0,1-.19,6.58A38.07,38.07,0,0,1,166.1,207.51Z" transform="translate(-38.24 -90.29)" fill="#b0b0b0"/><path d="M180.74,111.75l-.27.26a2.38,2.38,0,0,1-1-1.05l0,0C180.07,110.87,180.34,111.41,180.74,111.75Z" transform="translate(-38.24 -90.29)" fill="#a3a3a3"/><path d="M377.87,166.45c0-.46-.41-.83-.29-1.32C378,165.5,378.79,165.79,377.87,166.45Z" transform="translate(-38.24 -90.29)" fill="#956a18"/><path d="M122.42,165.13c.12.49-.3.86-.29,1.32C121.21,165.79,122,165.5,122.42,165.13Z" transform="translate(-38.24 -90.29)" fill="#956a18"/><path d="M178.67,110.17c.29.24.81.24.75.81l0,0a.89.89,0,0,1-.75-.8Z" transform="translate(-38.24 -90.29)" fill="#a3a3a3"/><path d="M377,164.36c-.5,0-.54-.38-.52-.77A.66.66,0,0,1,377,164.36Z" transform="translate(-38.24 -90.29)" fill="#956a18"/><path d="M123.48,163.59c0,.39,0,.74-.52.77A.66.66,0,0,1,123.48,163.59Z" transform="translate(-38.24 -90.29)" fill="#956a18"/><path d="M377.58,165.13c-.39,0-.54-.21-.45-.59A.49.49,0,0,1,377.58,165.13Z" transform="translate(-38.24 -90.29)" fill="#956a18"/><path d="M122.86,164.54c.1.38,0,.58-.44.59A.49.49,0,0,1,122.86,164.54Z" transform="translate(-38.24 -90.29)" fill="#956a18"/><path d="M320,111.22c.12-.25.28-.37.55-.24l0,0c0,.23-.19.31-.39.35Z" transform="translate(-38.24 -90.29)" fill="#b0b0b0"/><path d="M319.73,111.43l.3-.21.14.09-.24.31Z" transform="translate(-38.24 -90.29)" fill="#b0b0b0"/><path d="M320.58,111v-.21l.17.06-.2.13Z" transform="translate(-38.24 -90.29)" fill="#b0b0b0"/><path d="M178.69,110.16l-.12,0,.1,0Z" transform="translate(-38.24 -90.29)" fill="#a3a3a3"/><path d="M326.47,282.81l-.15.31Z" transform="translate(-38.24 -90.29)" fill="#4b4b4b"/><path d="M284.13,143.24l-.23-.3Z" transform="translate(-38.24 -90.29)" fill="#8d1b1e"/><path d="M174,209.91a99.28,99.28,0,0,0,19.31,9.17A119.6,119.6,0,0,0,205,222.24c12,2.69,19.94,10.08,24.65,21.23a77.85,77.85,0,0,1,5.24,21.63c.14,1.16.22,2.33.33,3.49-.57,0-.79-.45-1.12-.75a100.72,100.72,0,0,0-28.41-18.25c-4.87-2-9.87-3.79-14.61-6.13A28.1,28.1,0,0,1,177.05,229,39.41,39.41,0,0,1,174,215.48C173.91,213.63,173.49,211.77,174,209.91Zm59.71,55.6c-.24-1.86-.43-3.31-.62-4.76a1.2,1.2,0,0,0-.54-.71,113,113,0,0,0-16.61-10.83c-6.87-3.64-14.33-5.91-21.31-9.28a28.33,28.33,0,0,1-8.58-6c-4.67-5-7.05-11-7.89-17.72-.17-1.31-.05-2.79-1.72-3.44-.86-.34-1.14-.31-1.15.69a39.34,39.34,0,0,0,1.08,9c2.05,9.15,7.21,15.87,15.74,19.93,4,1.91,8.12,3.48,12.21,5.13a99.35,99.35,0,0,1,24,13.72C230,262.58,231.69,263.94,233.66,265.51Z" transform="translate(-38.24 -90.29)" fill="#080504"/><path d="M264.73,268.65c.77-9.15,2.36-18.12,6.2-26.56,5-11,13.31-17.71,25.14-20.11a90.91,90.91,0,0,0,29.64-11.9l.34-.16a6.07,6.07,0,0,1,.16,2.32,65.91,65.91,0,0,1-1,9.29c-1.76,8.56-5.76,15.61-13.42,20.29-4.24,2.59-8.88,4.3-13.48,6.08a101.87,101.87,0,0,0-29,17A36.76,36.76,0,0,1,264.73,268.65Zm1.58-3.17c.69-.5,1.08-.76,1.44-1.06A99.21,99.21,0,0,1,287.92,251c5.3-2.66,10.88-4.71,16.36-7a36.66,36.66,0,0,0,10.62-6.15A27.54,27.54,0,0,0,323.3,224a38.82,38.82,0,0,0,1.43-10.5c0-.34.21-.84-.4-.92s-2.11,1.25-2.21,1.9c-.26,1.71-.44,3.43-.81,5.11-1.51,7-4.75,12.88-10.55,17.19-3.9,2.9-8.37,4.73-12.86,6.41a109.44,109.44,0,0,0-29,15.77c-.69.54-1.72.9-1.93,1.83C266.67,262.19,266.56,263.66,266.31,265.48Z" transform="translate(-38.24 -90.29)" fill="#080504"/><path d="M197,152.55A30.92,30.92,0,0,0,195,162c-.6,10.88,3.79,19.66,11.56,26.91,7.26,6.77,15.87,11.27,25.19,14.5,5.26,1.83,8.58,5.33,9.19,11,.69,6.39-3.89,12.15-10.52,13.41a12.83,12.83,0,0,1-15.31-13.07,10.05,10.05,0,0,1,1.07-4.26c.5-.93.19-1.33-.56-1.83a60.21,60.21,0,0,1-13.79-12.57c-6.47-8.19-10.31-17.34-9.85-28a34.65,34.65,0,0,1,3.19-12.92,12.08,12.08,0,0,1,1.44-3Z" transform="translate(-38.24 -90.29)" fill="#c9272a"/><path d="M303.16,153c.69-.63.69.19.82.45a37.21,37.21,0,0,1,2.77,7.13c3.05,11.3.57,21.64-5.56,31.29a57.66,57.66,0,0,1-16.72,16.72c-.83.56-1.11,1-.63,2a12.1,12.1,0,0,1-3,14,13.19,13.19,0,0,1-15.15,1.82c-4.48-2.49-6.89-6.36-6.63-11.51.28-5.55,3.33-9.32,8.48-11.21a93.07,93.07,0,0,0,14.24-6.35c7.58-4.35,14.36-9.61,18.86-17.3,4.81-8.2,5.64-16.89,2.93-26a.22.22,0,0,0-.1-.35.37.37,0,0,0-.07-.2A.56.56,0,0,0,303.16,153Z" transform="translate(-38.24 -90.29)" fill="#c9272a"/><path d="M271.14,322.43a45.44,45.44,0,0,1-20.06-4.76,2.13,2.13,0,0,0-2.14,0,43.31,43.31,0,0,1-20.83,4.73,40.7,40.7,0,0,1-22.7-8A64.92,64.92,0,0,1,190,298.13a125.74,125.74,0,0,1-12.6-24,5.18,5.18,0,0,1,1-6,5.05,5.05,0,0,1,8.25,1.86,148.35,148.35,0,0,0,7.11,15c4.06,7.23,8.74,14,15.19,19.32s13.86,8.5,22.48,7.87A35.43,35.43,0,0,0,248.84,306a1.72,1.72,0,0,1,2.29,0c8.42,5.51,17.49,8,27.44,5.2,7.06-2,12.67-6.29,17.52-11.66,5.94-6.56,10.3-14.13,14-22.1,1.13-2.43,2.16-4.92,3.22-7.38a5.09,5.09,0,0,1,6.62-2.95,5,5,0,0,1,2.79,6.67c-5.11,12.62-11.33,24.59-20.93,34.46-7.17,7.37-15.64,12.44-26,13.88A26.75,26.75,0,0,1,271.14,322.43Zm-41.33-1.34c.64,0,1.67-.14,2.7-.22a40.33,40.33,0,0,0,15.85-4.56,3.11,3.11,0,0,1,3.25,0A40,40,0,0,0,275,320.78c8.86-1,16.42-5,23-10.86a70.69,70.69,0,0,0,11.74-13.84,133,133,0,0,0,11.55-22.37,3.87,3.87,0,0,0,.49-2.25,4,4,0,0,0-3.42-3.42c-1.54-.17-3.14,1-3.9,2.88-3.51,8.52-7.53,16.76-13,24.21a51.25,51.25,0,0,1-14.35,13.76,30.85,30.85,0,0,1-22.19,4.2,37.35,37.35,0,0,1-14-5.63,1.23,1.23,0,0,0-1.62-.09,36,36,0,0,1-7.25,3.79A32.82,32.82,0,0,1,226,313.47c-7.73-.88-14.18-4.52-19.81-9.76-6.36-5.93-11-13.08-15-20.72-2.07-4-3.89-8-5.59-12.17-1-2.37-3-3.35-5.07-2.42s-2.71,3-1.64,5.52a142.42,142.42,0,0,0,9.45,18.95c4.71,7.65,10.19,14.63,17.49,20A40.6,40.6,0,0,0,229.81,321.09Z" transform="translate(-38.24 -90.29)" fill="#0a0e0e"/><path d="M261,130.17c0,.17,0,.34,0,.51l-8.94,41.2a6.22,6.22,0,0,1-.7,2c-.44-1.94-.9-3.87-1.32-5.82q-3.92-18-7.82-36.11c-.16-.75-.38-1.49-.57-2.23l.11-.27c3-.17,6-.62,9-.57A57,57,0,0,1,261,130.17Z" transform="translate(-38.24 -90.29)" fill="#c9272a"/><path d="M264.73,268.65a36.76,36.76,0,0,0,4.57-3.77,101.87,101.87,0,0,1,29-17c4.6-1.78,9.24-3.49,13.48-6.08,7.66-4.68,11.66-11.73,13.42-20.29a65.91,65.91,0,0,0,1-9.29,6.07,6.07,0,0,0-.16-2.32,29.07,29.07,0,0,0,6.22-8.39,25.1,25.1,0,0,1,.72,5.39c.63,18-7.19,31.14-22.69,40-6,3.42-12.62,5.5-18.88,8.37-6.64,3-13.13,6.3-18.85,10.92a26.07,26.07,0,0,0-3.55,3.42,11.08,11.08,0,0,0-3.11,6.7A14.15,14.15,0,0,1,264.73,268.65Z" transform="translate(-38.24 -90.29)" fill="#c9272a"/><path d="M174,209.91c-.46,1.86,0,3.72.05,5.57A39.41,39.41,0,0,0,177.05,229a28.1,28.1,0,0,0,14.07,14.51c4.74,2.34,9.74,4.09,14.61,6.13a100.72,100.72,0,0,1,28.41,18.25c.33.3.55.78,1.12.75.12,3-.37,6-1.26,7.6-.19-3.66-2.37-6.17-4.81-8.46-4.9-4.59-10.75-7.71-16.71-10.67-6.44-3.21-13.31-5.46-19.78-8.61-8.74-4.26-16-10.15-20.72-18.85a42,42,0,0,1-4.43-27.45,2.27,2.27,0,0,1,.24-.47A28.82,28.82,0,0,0,174,209.91Z" transform="translate(-38.24 -90.29)" fill="#c9272a"/><path d="M330.69,245.31c-.62,4.05-1.58,8-2.52,12-.29,1.22-.54,2.44-.81,3.66-.08.1-.17.19-.26.29-4,2-8.21,2.65-12.55,3.11-6.77.7-12.25,4.11-17.19,8.53-1.25,1.11-2.35,2.41-3.64,3.52a34.78,34.78,0,0,1,7-13.93,23.36,23.36,0,0,1,13.68-8.19,30.4,30.4,0,0,0,15.83-8.7A3.91,3.91,0,0,1,330.69,245.31Z" transform="translate(-38.24 -90.29)" fill="#c9272a"/><path d="M172.63,261c-1.07-5.23-2.52-10.38-3.33-15.67a39.11,39.11,0,0,0,8.77,6.44,30.87,30.87,0,0,0,7.74,2.62c6.73,1.36,11.68,5.27,15.47,10.82a37.53,37.53,0,0,1,5.22,11.54,60.94,60.94,0,0,0-5.73-5.45,30.49,30.49,0,0,0-17.9-7.22,27,27,0,0,1-10-2.79Z" transform="translate(-38.24 -90.29)" fill="#c9272a"/><path d="M250.07,281.77a60.07,60.07,0,0,1,13.46.83c3.25.64,3.48,1.23,1.47,3.81a24.14,24.14,0,0,1-9.09,7.37,13.79,13.79,0,0,1-12.42-.28,24.23,24.23,0,0,1-9.1-7.95c-1.15-1.64-.95-2.16,1-2.68a34.59,34.59,0,0,1,7.84-1.07C245.48,281.69,247.78,281.77,250.07,281.77Zm-.09,1.84a14.29,14.29,0,0,0-4.74.49c-.4.12-.94.18-.94.73s.52.68.92.78a20.76,20.76,0,0,0,9.6,0c.4-.09.92-.26.89-.8s-.5-.56-.87-.66A14.24,14.24,0,0,0,250,283.61Z" transform="translate(-38.24 -90.29)" fill="#0a0e0e"/><path d="M273.56,294.26a13.86,13.86,0,0,1,7.65-9.22,2.5,2.5,0,0,1,2.91.33,2.46,2.46,0,0,1,.79,2.82,2.39,2.39,0,0,1-2.32,1.76A12.76,12.76,0,0,0,273.56,294.26Z" transform="translate(-38.24 -90.29)" fill="#0a0e0e"/><path d="M226.65,294.57A16.48,16.48,0,0,0,222,291a14.74,14.74,0,0,0-4.67-1.05,2.52,2.52,0,0,1-2.28-3.13,2.49,2.49,0,0,1,3.38-1.9A14.21,14.21,0,0,1,226.65,294.57Z" transform="translate(-38.24 -90.29)" fill="#0a0e0e"/><path d="M275.55,299.82a13.23,13.23,0,0,1,8.62-6.07,8.52,8.52,0,0,1,1.8-.27,2.58,2.58,0,0,1,2.75,2.76,2.66,2.66,0,0,1-3.21,2.42c-.81-.15-1.6-.39-2.42-.49A12.6,12.6,0,0,0,275.55,299.82Z" transform="translate(-38.24 -90.29)" fill="#0a0e0e"/><path d="M224.47,299.82a12.56,12.56,0,0,0-9.93-1.19,2.42,2.42,0,0,1-2.75-1,2.46,2.46,0,0,1-.24-2.71,2.44,2.44,0,0,1,2.56-1.44A13.61,13.61,0,0,1,224.47,299.82Z" transform="translate(-38.24 -90.29)" fill="#0a0e0e"/><path d="M303.33,152.66c-.93-.73-1-1.86-1.38-2.86A4.57,4.57,0,0,1,303.33,152.66Z" transform="translate(-38.24 -90.29)" fill="#b0b0b0"/><path d="M197,152.55l-.34-.36a6.8,6.8,0,0,1,1.38-2.42A7.43,7.43,0,0,1,197,152.55Z" transform="translate(-38.24 -90.29)" fill="#b0b0b0"/><path d="M303.16,153a.56.56,0,0,1,.2.57C303.09,153.43,303.11,153.21,303.16,153Z" transform="translate(-38.24 -90.29)" fill="#b0b0b0"/><path d="M303.43,153.75a.22.22,0,0,1,.1.35C303.36,154,303.36,153.9,303.43,153.75Z" transform="translate(-38.24 -90.29)" fill="#b0b0b0"/><path d="M428.35,334.9a10.07,10.07,0,0,1,3,1.35c2.66,1.31,5.36,2.52,7.88,4.09A110.86,110.86,0,0,1,428.35,334.9Z" transform="translate(-38.24 -90.29)" fill="#4b4b4b"/><path d="M427.31,334.38c.44,0,.85.08,1.06.54A1.68,1.68,0,0,1,427.31,334.38Z" transform="translate(-38.24 -90.29)" fill="#4b4b4b"/><path d="M60.48,340.48a96.14,96.14,0,0,1,11.17-5.58,34.05,34.05,0,0,1-5,2.63C64.61,338.55,62.54,339.5,60.48,340.48Z" transform="translate(-38.24 -90.29)" fill="#4b4b4b"/><path d="M71.63,334.92c.21-.46.62-.52,1.06-.54A1.68,1.68,0,0,1,71.63,334.92Z" transform="translate(-38.24 -90.29)" fill="#4b4b4b"/><path d="M233.66,265.51c-2-1.57-3.64-2.93-5.34-4.25a99.35,99.35,0,0,0-24-13.72c-4.09-1.65-8.22-3.22-12.21-5.13-8.53-4.06-13.69-10.78-15.74-19.93a39.34,39.34,0,0,1-1.08-9c0-1,.29-1,1.15-.69,1.67.65,1.55,2.13,1.72,3.44C179,223,181.33,229,186,234a28.33,28.33,0,0,0,8.58,6c7,3.37,14.44,5.64,21.31,9.28A113,113,0,0,1,232.5,260a1.2,1.2,0,0,1,.54.71C233.23,262.2,233.42,263.65,233.66,265.51Z" transform="translate(-38.24 -90.29)" fill="#4b4b4b"/><path d="M266.31,265.48c.25-1.82.36-3.29.68-4.71.21-.93,1.24-1.29,1.93-1.83a109.44,109.44,0,0,1,29-15.77c4.49-1.68,9-3.51,12.86-6.41,5.8-4.31,9-10.23,10.55-17.19.37-1.68.55-3.4.81-5.11.1-.65,1.61-2,2.21-1.9s.4.58.4.92A38.82,38.82,0,0,1,323.3,224a27.54,27.54,0,0,1-8.4,13.91A36.66,36.66,0,0,1,304.28,244c-5.48,2.27-11.06,4.32-16.36,7a99.21,99.21,0,0,0-20.17,13.4C267.39,264.72,267,265,266.31,265.48Z" transform="translate(-38.24 -90.29)" fill="#4b4b4b"/><path d="M229.81,321.09a40.6,40.6,0,0,1-24.07-8.18c-7.3-5.41-12.78-12.39-17.49-20a142.42,142.42,0,0,1-9.45-18.95c-1.07-2.52-.42-4.57,1.64-5.52s4.1.05,5.07,2.42C187.21,275,189,279,191.1,283c4,7.64,8.68,14.79,15,20.72,5.63,5.24,12.08,8.88,19.81,9.76A32.82,32.82,0,0,0,242,311.16a36,36,0,0,0,7.25-3.79,1.23,1.23,0,0,1,1.62.09,37.35,37.35,0,0,0,14,5.63,30.85,30.85,0,0,0,22.19-4.2,51.25,51.25,0,0,0,14.35-13.76c5.49-7.45,9.51-15.69,13-24.21.76-1.85,2.36-3.05,3.9-2.88a4,4,0,0,1,3.42,3.42,3.87,3.87,0,0,1-.49,2.25,133,133,0,0,1-11.55,22.37A70.69,70.69,0,0,1,298,309.92c-6.6,5.87-14.16,9.82-23,10.86a40,40,0,0,1-23.35-4.48,3.11,3.11,0,0,0-3.25,0,40.33,40.33,0,0,1-15.85,4.56C231.48,321,230.45,321.13,229.81,321.09Zm41.4-1.27c1.55-.16,3.63-.28,5.67-.62a38.69,38.69,0,0,0,16.91-7.48,62,62,0,0,0,13.56-14.42A122.47,122.47,0,0,0,320.17,273c.6-1.48.12-2.92-1.11-3.39a2.52,2.52,0,0,0-3.36,1.6c-.38.91-.76,1.83-1.15,2.74a109,109,0,0,1-11.43,20.93A61.25,61.25,0,0,1,293,306.12c-7.65,6.5-16.31,9.77-26.46,8.48a36.9,36.9,0,0,1-15.27-5.45,2.1,2.1,0,0,0-2.58.06c-8.55,5.12-17.69,7.12-27.51,4.62a36,36,0,0,1-15.42-8.77c-6.54-6-11.39-13.22-15.5-21a127.79,127.79,0,0,1-5.94-12.85,2.57,2.57,0,0,0-3.36-1.62c-1.23.47-1.71,1.91-1.11,3.39a133.5,133.5,0,0,0,9.23,18.74c4.89,8.13,10.71,15.43,18.53,20.94a37.47,37.47,0,0,0,12.25,5.79A36.34,36.34,0,0,0,232,319.62a41.82,41.82,0,0,0,14.58-3.84c3.41-1.63,3.4-1.65,6.8,0A42.54,42.54,0,0,0,271.21,319.82Z" transform="translate(-38.24 -90.29)" fill="#8d1b1e"/><path d="M250,283.61a14.24,14.24,0,0,1,4.86.52c.37.1.84.2.87.66s-.49.71-.89.8a20.76,20.76,0,0,1-9.6,0c-.4-.1-.92-.25-.92-.78s.54-.61.94-.73A14.29,14.29,0,0,1,250,283.61Z" transform="translate(-38.24 -90.29)" fill="#4b4b4b"/><path d="M271.21,319.82a42.54,42.54,0,0,1-17.81-4c-3.4-1.66-3.39-1.64-6.8,0A41.82,41.82,0,0,1,232,319.62a36.34,36.34,0,0,1-12.18-1.16,37.47,37.47,0,0,1-12.25-5.79c-7.82-5.51-13.64-12.81-18.53-20.94A133.5,133.5,0,0,1,179.83,273c-.6-1.48-.12-2.92,1.11-3.39a2.57,2.57,0,0,1,3.36,1.62,127.79,127.79,0,0,0,5.94,12.85c4.11,7.77,9,15,15.5,21a36,36,0,0,0,15.42,8.77c9.82,2.5,19,.5,27.51-4.62a2.1,2.1,0,0,1,2.58-.06,36.9,36.9,0,0,0,15.27,5.45c10.15,1.29,18.81-2,26.46-8.48a61.25,61.25,0,0,0,10.14-11.25,109,109,0,0,0,11.43-20.93c.39-.91.77-1.83,1.15-2.74a2.52,2.52,0,0,1,3.36-1.6c1.23.47,1.71,1.91,1.11,3.39a122.47,122.47,0,0,1-12.82,24.31,62,62,0,0,1-13.56,14.42,38.69,38.69,0,0,1-16.91,7.48C274.84,319.54,272.76,319.66,271.21,319.82Z" transform="translate(-38.24 -90.29)" fill="#c82428"/></svg>