<svg id="Capa_1" data-name="Capa 1" xmlns="http://www.w3.org/2000/svg" viewBox="0 0 241.32 313.8"><path d="M245.46,371.46c-.74,1-1.35,2-2,2.86-5.73,7.31-13.13,11.34-22.53,10.86-7.3-.38-13.46-3.65-18.85-8.46a55.82,55.82,0,0,1-8-9.4c-1.43-2-2.87-4-4.24-6a43.08,43.08,0,0,0-13.12-12.77c-4.76-3-9.54-5.91-14.32-8.86a85.68,85.68,0,0,1-7.11-5c-7.13-5.5-11.54-12.84-14.56-21.18-3.09-8.52-4.92-17.37-6.81-26.2-2.51-11.75-4.83-23.55-6.67-35.43-1.2-7.8-2.5-15.61-2.34-23.56.29-14.27,4.72-27,14.07-37.93a3.4,3.4,0,0,0,.86-3.29,160.5,160.5,0,0,1-2.72-43.52c1.73-22.32,7.52-43.49,18.25-63.21A76.22,76.22,0,0,1,161,71.54a5.78,5.78,0,0,1,2.15,1.64c13.42,12.33,24.47,26.61,34.5,41.74a378.43,378.43,0,0,1,20,34c.84,1.59.56,1.9,3,1.39a126.53,126.53,0,0,1,33.3-2.13,93.87,93.87,0,0,1,16.94,2.27c1.33.33,1.86-.17,2.41-1.26,3-6,6.36-11.92,9.79-17.74,9.72-16.53,20.47-32.34,33.29-46.66,3.93-4.4,8.12-8.52,12.46-12.51.31-.28.65-.53,1.09-.88a71.73,71.73,0,0,1,6,9.35A154,154,0,0,1,351.66,126a162,162,0,0,1,2.53,36.19,145,145,0,0,1-2.92,24.3,4.43,4.43,0,0,0,1.13,4.25,57.06,57.06,0,0,1,13,28.35c1.32,7.82.83,15.59-.22,23.36-2.61,19.41-6.5,38.58-10.89,57.65a123.5,123.5,0,0,1-4.59,15.08,44.57,44.57,0,0,1-17.95,22.41q-6.84,4.46-13.87,8.6A51.89,51.89,0,0,0,299.94,363a85.35,85.35,0,0,1-7.52,10.15,36.71,36.71,0,0,1-12,9.29c-12.25,5.79-25.33,2.32-33.36-8.79ZM142.51,168a4.15,4.15,0,0,0-.09.78c.53,5.66,1.18,11.31,2.21,16.9.37,2,.35,4.18,1.38,6.07l.1,1a1.58,1.58,0,0,0,.41,1.65l.3,1.54c0,.08-.15.18-.13.22a2.27,2.27,0,0,0,.29.4,4.87,4.87,0,0,0,.45,2.06c0,.06-.13.14-.12.18a2.64,2.64,0,0,0,.23.35,9,9,0,0,0,.65,3.43,9.34,9.34,0,0,1,1,4.23c-2.61-4.19-4.18-8.94-6.69-13.16-.84.21-1.11.8-1.48,1.27-8.38,10.65-11.93,22.88-11.62,36.3a137.69,137.69,0,0,0,2,17.75c2.39,15.5,5.43,30.88,8.87,46.18,1.68,7.44,3.6,14.82,6.76,21.8A36.78,36.78,0,0,0,162.36,334a43.85,43.85,0,0,0,5.66,3.82c3.87,2.42,7.76,4.8,11.63,7.22a46.56,46.56,0,0,1,13.68,13.32q2.53,3.69,5.14,7.33a43.48,43.48,0,0,0,6,7c5.41,5,11.53,8.29,19.16,7.88s15.05-4.66,17.27-14c.26-1.09.85-2.21.34-3.5-3.83,4.09-6.78,5.71-10.84,6a7.13,7.13,0,0,1,2-1.62c7.06-5.32,7.79-13.37,1.74-19.83-1.2-1.28-2.53-2.44-3.8-3.65a18.89,18.89,0,0,1-3.57-4.2c-2.37-4.08-.78-8.2,3.69-9.64a13.33,13.33,0,0,1,4.17-.46q10.8,0,21.61,0a19.36,19.36,0,0,1,3.41.24c5,1,7.06,5.7,4.4,10a19.16,19.16,0,0,1-3.42,4c-1.34,1.26-2.72,2.5-4,3.83-4.69,4.91-6.34,13.73,1.86,19.66.72.52,1.67.83,2.16,1.86a19.33,19.33,0,0,1-6.08-2.06c-1.84-.95-3.22-2.49-4.85-3.77.53,5.84,2.81,10.69,7.71,14,5.41,3.67,11.31,4,17.4,2.15,6.48-1.92,11.46-6,15.53-11.25,2.59-3.31,5-6.8,7.38-10.25a47,47,0,0,1,13.52-13.12q2.9-1.82,5.78-3.66c4-2.57,8.24-4.68,11.92-7.69a1.59,1.59,0,0,0,.51-.1,38.7,38.7,0,0,0,14.27-16.17,92.45,92.45,0,0,0,5.74-17.18,595,595,0,0,0,11.44-61,63.8,63.8,0,0,0-.89-23.53,52.82,52.82,0,0,0-11.26-22.31c-.85.49-1,1.33-1.31,2-1.44,2.9-2.81,5.84-4.24,8.76-.37.74-.49,1.73-1.58,1.9a61.61,61.61,0,0,0,2.09-8.47.43.43,0,0,0,.18-.66l.28-1.54a1,1,0,0,0,.31-1.14l.21-1.49a1.49,1.49,0,0,0,.39-1.65l.12-1a2.11,2.11,0,0,0,.43-2.17l.14-1a1.19,1.19,0,0,0,.46-.89,201.06,201.06,0,0,0,2.51-20.6,169.81,169.81,0,0,0-2.47-44.5,118.67,118.67,0,0,0-13.89-37.53c-.52-.88-.84-1.93-1.8-2.51-.26-1-1.44-1.34-1.65-2.62-2.21,2-4.12,4-6,6-18.55,19.86-32.8,42.65-45.45,66.54a1.81,1.81,0,0,0,.42,2.51c1.72,1.73,3.37,3.55,5.51,5.83C258,150,233.1,150.18,208,159.09a37.2,37.2,0,0,1,4.93-5.41c1.11-1.08,1.09-1.87.41-3.16-4.92-9.31-10.06-18.49-15.7-27.38-9.77-15.39-20.57-30-33.6-42.79a6.24,6.24,0,0,0-2.16-1.8,13.39,13.39,0,0,0-1.81,3c-.7.33-.88,1.06-1.23,1.65a111.52,111.52,0,0,0-8.16,17c-6,15.85-8.56,32.31-8.89,49.17A131.93,131.93,0,0,0,142.51,168Z" transform="translate(-124.83 -71.42)" fill="#131315"/><path d="M344.22,195.44l-.28,1.54a.43.43,0,0,0-.18.66,61.61,61.61,0,0,1-2.09,8.47c-.25.6-.75,1.17-.19,2a12.57,12.57,0,0,0,3.14-2.33c.88-.85,1.73-1.74,2.68-2.52,1.49-1.24,1.74-1.17,2.73.47a44,44,0,0,1,3.36,7.4,42.41,42.41,0,0,1,2.33,22.67,34.74,34.74,0,0,1-9.56,18.65c-.5.5-1.22.92-1.23,2.06,2.56-1.12,4.08-3.06,5.88-4.67s3.07-3.78,4.76-5.67a1.28,1.28,0,0,1,0,1.26c-1.32,2.87-2.66,5.72-3.95,8.6s-3.3,5.53-4.79,8.39a.63.63,0,0,0-.2.1s0,.1,0,.16l.21-.26c.83.1,1.26-.51,1.76-1a37.32,37.32,0,0,0,5.68-6.55c.31-.49.54-1.13,1.35-1.12a3.14,3.14,0,0,1,.14,2.25c-.53,3.46-1,6.92-1.72,10.35-2.58,13.14-5.37,26.21-9.2,39.07-2.68,9-6.69,17.08-13,24.09-1.1,1.24-2.76,2.23-2.92,4.18-3.68,3-7.95,5.12-11.92,7.69q-2.88,1.85-5.78,3.66a47,47,0,0,0-13.52,13.12c-2.41,3.45-4.79,6.94-7.38,10.25-4.07,5.23-9.05,9.33-15.53,11.25-6.09,1.8-12,1.52-17.4-2.15-4.9-3.32-7.18-8.17-7.71-14,1.63,1.28,3,2.82,4.85,3.77a19.33,19.33,0,0,0,6.08,2.06c-.49-1-1.44-1.34-2.16-1.86-8.2-5.93-6.55-14.75-1.86-19.66,1.27-1.33,2.65-2.57,4-3.83a19.16,19.16,0,0,0,3.42-4c2.66-4.34.6-9.07-4.4-10a19.36,19.36,0,0,0-3.41-.24q-10.81,0-21.61,0a13.33,13.33,0,0,0-4.17.46c-4.47,1.44-6.06,5.56-3.69,9.64a18.89,18.89,0,0,0,3.57,4.2c1.27,1.21,2.6,2.37,3.8,3.65,6.05,6.46,5.32,14.51-1.74,19.83a7.13,7.13,0,0,0-2,1.62c4.06-.31,7-1.93,10.84-6,.51,1.29-.08,2.41-.34,3.5-2.22,9.31-9.68,13.56-17.27,14s-13.75-2.91-19.16-7.88a43.48,43.48,0,0,1-6-7q-2.59-3.65-5.14-7.33A46.56,46.56,0,0,0,179.65,345c-3.87-2.42-7.76-4.8-11.63-7.22a43.85,43.85,0,0,1-5.66-3.82c.11-1.36-1-2-1.76-2.77a56.31,56.31,0,0,1-11.81-18.16,190.1,190.1,0,0,1-7-23.62c-2.56-10.44-4.48-21-6.26-31.6-.27-1.6-1.07-3.26-.41-5.15,1.63,2.15,3.07,4.22,4.69,6.15,1.15,1.38,2.17,3,4.05,3.58a1.47,1.47,0,0,0,.1.22s.17,0,.18,0,0-.25-.25-.27a2.71,2.71,0,0,0-.66-1.68,74.61,74.61,0,0,1-6-11.08,13.94,13.94,0,0,1-1.77-5.42c1.81,2.14,3,4.11,4.61,5.66s3,3.11,5.33,4a3.78,3.78,0,0,0-1.45-2.21,34.13,34.13,0,0,1-5.93-9.24c-5.45-12.86-3.78-25.33,2.31-37.48,1.59-3.16,1.71-3.08,4.42-.61.9.82,1.87,1.58,2.83,2.35A1.33,1.33,0,0,0,149,207a.27.27,0,0,1,.26.36.64.64,0,0,0,.15.86c.08.07.38,0,.41-.06.18-.38-.05-.58-.39-.7l-.31-.76.05.06a9.36,9.36,0,0,0-1-4.24,9,9,0,0,1-.65-3.43c0-.06.12-.15.1-.19a2.39,2.39,0,0,0-.21-.34,4.87,4.87,0,0,1-.45-2.06c0-.08.12-.18.1-.22a2.11,2.11,0,0,0-.26-.4l-.3-1.54c.55-.72.51-1.29-.41-1.65l-.1-1c.72-1,.27-2,.14-3-.44-3.52-1-7-1.29-10.58-.33-3.36-.47-6.75-.7-10.12.5-1.77-.33-3.47-.27-5.22.12-3.93.09-7.86.29-11.81.32-6,.6-12.05,1.22-18.06a42.51,42.51,0,0,1,1.46-8.71c.19,4.09.06,8.17.23,12.25a46.49,46.49,0,0,0,1.85,11.92,167.41,167.41,0,0,1,2.17-26.93A236.87,236.87,0,0,1,156,97.9c1.28-5,2.82-9.93,4.23-14.89.14-.52.72-1.15-.25-1.51a13.39,13.39,0,0,1,1.81-3,6.24,6.24,0,0,1,2.16,1.8c13,12.82,23.83,27.4,33.6,42.79,5.64,8.89,10.78,18.07,15.7,27.38.68,1.29.7,2.08-.41,3.16a37.2,37.2,0,0,0-4.93,5.41c25.15-8.91,50-9.07,75.48.2-2.14-2.28-3.79-4.1-5.51-5.83a1.81,1.81,0,0,1-.42-2.51c12.65-23.89,26.9-46.68,45.45-66.54,1.91-2,3.82-4.09,6-6,.21,1.28,1.39,1.63,1.65,2.62-1,.57-.2,1.26-.05,1.82,1.2,4.21,2.51,8.39,3.68,12.61a240.62,240.62,0,0,1,5.66,26.15,98.86,98.86,0,0,1,1.62,14.32c0,4.23,1,8.42.51,12.68a109.29,109.29,0,0,0,2.37-23.32c.38,2.41.74,4.79,1,7.18a166.14,166.14,0,0,1,1.33,17.79,186.91,186.91,0,0,1-.31,21.3c-.39,4.44-.52,8.91-1.11,13.34-.09.73-.4,1.59.45,2.16-.05.33-.09.66-.14,1-1.21.51-1.09,1.29-.43,2.17l-.12,1c-1,.35-1.11.89-.39,1.65l-.21,1.49C343.79,194.52,343.65,194.88,344.22,195.44ZM225.56,342.05a.65.65,0,0,0,.49.56,3,3,0,0,0,.49,1.73c3,5.59,3.33,11.13-.34,16.6-.26.38-.74.81-.28,1.56,3-1.28,4-4.1,5.23-6.74-.25,5.3-3,9.2-6.87,12.44-.66.56-1.5.92-1.87,1.78-.2.11-.77-.18-.5.4.06.13.43-.12.51-.4a3.36,3.36,0,0,0,2-.47,22.26,22.26,0,0,0,6.8-4.83,10.85,10.85,0,0,0,2.65-11.82,22.6,22.6,0,0,0-7.73-10.34.64.64,0,0,0-.54-.5l-.29-.24C225.27,341.94,225.35,342,225.56,342.05ZM146,249.22a.79.79,0,0,0-.09-.23s-.16-.05-.16,0,0,.25.24.28a.6.6,0,0,0,.08.2s.11,0,.16,0Zm.51,5.29a.93.93,0,0,0-.1-.2s-.1,0-.15,0l.28.2a.59.59,0,0,0,.06.2s.09,0,.14,0Zm157.67-65.38a.67.67,0,0,0-.53-.54,1,1,0,0,0-1-.56,1.37,1.37,0,0,0-.56-1.14,28.89,28.89,0,0,1-5-4.64,38.29,38.29,0,0,1-8.22-13.6,3.42,3.42,0,0,1,0-2.75c2.23-5.24,4.37-10.5,6.53-15.77.17-.4.61-.87,0-1.28-.18.14-.37.22-.44.36-2.72,5.2-5.42,10.41-8.15,15.61a4.56,4.56,0,0,0-.28,3.29c1.66,7.73,6.4,13.28,12.5,17.86a8.85,8.85,0,0,0,3.57,2.1,1,1,0,0,0,1.08.5.67.67,0,0,0,.54.53c.18.2.28.67.65.19Zm-116.52-.54c-.21.11-.77-.23-.54.38,0,.11.42-.14.52-.39a.73.73,0,0,0,.22-.09s0-.1.05-.16Zm133.27-6.7a.55.55,0,0,0,.61.45l0,0a16.69,16.69,0,0,0,4.88,3.26c.48.49,1,1,1.83.73a2.18,2.18,0,0,0-1.34-1.45c-.53-.62-.87-1.46-1.83-1.59-.3-.5-.6-1-1.32-.61l.05-.1c-.07-1.39-1-2.31-1.77-3.33a47.31,47.31,0,0,1-8.67-21.16,13.35,13.35,0,0,1-.07-4.07c2.95,5.8,7,9.82,11.51,13.48a3.15,3.15,0,0,0,2.67,1.55c-.57-.71-.45-1.61-1.45-1.6a10.17,10.17,0,0,0-1.18-2.9,79.78,79.78,0,0,1-5.1-11.55,50.82,50.82,0,0,1-3.19-15.19c3.15,7.34,7,14.13,13.35,19.23a2.24,2.24,0,0,0,1.44,1.2l.08.08a1,1,0,0,0,.75.62c.33.27.55.69,1,.7a5.1,5.1,0,0,0,3.2,1.47c-1.25-1.25-1.49-2.52-2.62-3.16h0l-.54-.5c-.5-1.19-.94-2.41-1.51-3.57a64.51,64.51,0,0,1-5.4-16.45c-2.52-13.29-2-26.56.24-39.82a4.07,4.07,0,0,0,.11-2,6.48,6.48,0,0,0-1.75,2.22c-13.6,21.3-24.51,44-33.88,67.39a4.59,4.59,0,0,0,.16,4,38.21,38.21,0,0,0,5.55,8.6c8.39,9.6,19.13,15.74,30.62,20.77l.22.12.25,0h0a5.15,5.15,0,0,0,3.27,1.14c-.76-.87-1.22-1.56-2.15-1.7-2.34-2.45-4.78-4.81-7-7.37A56.76,56.76,0,0,1,312,175.46a1,1,0,0,1,1.11-.6A41,41,0,0,0,320,181.2,1.09,1.09,0,0,0,320.89,181.89ZM187.62,348.35a.61.61,0,0,0-.09-.2s-.11,0-.17,0l.25.25c.17.45.56.55,1,.61a2.13,2.13,0,0,0,1,1.5c3.49,2.6,6.05,6.06,8.84,9.32,4.11,4.79,8,9.75,12.74,14,5.35,4.83,11.33,6.48,18.12,3.46a14.42,14.42,0,0,0,7.41-6.74.53.53,0,0,0,.37-.57c0-.06-.12-.1-.18-.15l-.25.67c-.91,0-1.35.72-2,1.17-6.78,4.82-12.13,5.25-18.78,1.33a42.38,42.38,0,0,1-10.23-8.59c-3.6-4.08-7.47-7.89-11.37-11.68a16.47,16.47,0,0,0-5.54-3.88A1.12,1.12,0,0,0,187.62,348.35Zm6.84-201.94-.18-.12.2.1c0,.57-.08,1.19.52,1.57a.64.64,0,0,0,.54.53,5.11,5.11,0,0,0,.56,2.79c1.9,4.61,3.69,9.27,5.68,13.84a5.3,5.3,0,0,1,.07,4.29,37.6,37.6,0,0,1-3.65,7.25,32.79,32.79,0,0,1-7.66,8.9c-.69.52-1.78,1-1.68,2.32.3,0,.41,0,.47,0,.72-.49,1.45-1,2.15-1.48,5.23-3.86,9.57-8.45,12-14.64,1.2-3.11,1.91-6.13-.33-9.14a32.31,32.31,0,0,1-1.71-3.25c-2.05-3.56-3.65-7.37-5.89-10.82A.65.65,0,0,0,195,148C195,147.41,195,146.8,194.46,146.41Zm-26.11,19.17a2.17,2.17,0,0,0,1.36-1.25,39,39,0,0,0,8.13-10,34.86,34.86,0,0,1-1.12,8.4,48.69,48.69,0,0,1-9.14,18.46,30.36,30.36,0,0,0-3.62,3.9,2.26,2.26,0,0,0-1.12,1.46c.81-.35,1.35-.48,1.69-1a14.78,14.78,0,0,0,4.8-3.12l-.13-.19.13.19a3.87,3.87,0,0,0,2.11-1.57l-.12-.18.14.17a13,13,0,0,0,4.64-4.36l1.63-1.56,1.5-.05c-1.32,1.52-1.57,3.55-2.55,5.24A77.93,77.93,0,0,1,162.1,197.9a4,4,0,0,0-2.22,2.2,11.05,11.05,0,0,0,3.92-1.58,95.32,95.32,0,0,0,24.1-14.4,43.69,43.69,0,0,0,11.8-14.67,5.23,5.23,0,0,0,.12-4.52q-4-10-8.44-19.87A366.54,366.54,0,0,0,166.3,98.2c-.51-.8-.83-1.84-2-2.37a17.2,17.2,0,0,0,.16,1.78,124.61,124.61,0,0,1,1.74,15.18A96.18,96.18,0,0,1,164.11,140a56.86,56.86,0,0,1-8.18,19.5,1.72,1.72,0,0,0-.82,1.57,1.66,1.66,0,0,0,1.83-1,27.64,27.64,0,0,0,5.95-4.48,44.18,44.18,0,0,0,10.53-16c.55.13.5.79.92,1.05-.09.51-.19,1-.28,1.55a.85.85,0,0,0-.18,1c-.1.6-.16,1.21-.29,1.8a79.29,79.29,0,0,1-8.15,20.89,12.4,12.4,0,0,0-1.82,3.6c1.08-.82,2-1,2.34-2l.59-.81c.91.18,1.35-.41,1.75-1.05Zm123.71,187,.34-.58a.42.42,0,0,0,.25-.35.7.7,0,0,0,.56-.59,3.68,3.68,0,0,0,.9-.48,53.49,53.49,0,0,1,13.83-9.49c4.53-2.32,9.07-4.59,13.59-6.93a23,23,0,0,0,5.93-4.33c4.23-4.37,3.32-12.22-1.82-15.72.06,1,.11,1.94.17,2.9a13.45,13.45,0,0,1-4.44,10.83,28.84,28.84,0,0,1-5.2,4c-3.16,1.89-6.35,3.72-9.53,5.58-3.94,2.32-7.84,4.69-11,8-1.87,1.93-3.77,3.87-4.7,6.5a9.42,9.42,0,0,0-1.67,5.24c.87-1.59,2.28-2.83,2.83-4.6Zm53.28-103.85a1.51,1.51,0,0,0,1.05-.7,27.92,27.92,0,0,0,4.68-9.36,58.29,58.29,0,0,0,1.25-7,46.85,46.85,0,0,0-1.54-18.88,6.22,6.22,0,0,0-.22,1.46c-.19,1.78.44,3.47.48,5.22.06,2.55-.28,5.07-.39,7.6a62.36,62.36,0,0,1-1.46,10.11c-.84,4-2.57,7.63-4,11.4l-.2.33ZM265.65,362.6a.84.84,0,0,0,.08.19s.1,0,.15,0l-.22-.22c0-.79-.61-1.22-1-1.8a14.11,14.11,0,0,1-2.51-10,18.38,18.38,0,0,1,3-7.53c.32-.48.83-.9.63-1.61-3.42,2.08-7.66,7.58-8.76,11.41a11.83,11.83,0,0,0-.69,4.11c.47,6.09,5.93,11.17,12,12.77.2.28.36.67.74.19l-.71-.21c-1.32-1.88-3.21-3.2-4.72-4.9a13.42,13.42,0,0,1-3.54-8.73c.44.66.57,1.47,1,2.1C262.21,360.21,263,362.46,265.65,362.6ZM238.23,162.73a24.31,24.31,0,0,0-12.53,11.4c-3.87,7.25-4.55,15-3,22.93.28,1.41.27,2.92,1.35,4.55a53.88,53.88,0,0,1,2-17.74,44.93,44.93,0,0,1,10.55-18.81c.65-.68,1.57-1.2,1.62-2.3.2-.11.76.17.49-.4C238.69,162.24,238.32,162.48,238.23,162.73Zm37.94,113.36a8.75,8.75,0,0,0-2.62,2.52,58.48,58.48,0,0,0-9,15c-3.08,8-3.71,15.94-.41,24,1,2.42,2,4.84,4.12,6.58l.33.22-.2-.34a5.07,5.07,0,0,0-.55-2,30.6,30.6,0,0,1-2.12-8.35,50.29,50.29,0,0,1,3.27-21.6,91.41,91.41,0,0,1,6.92-14.42,2.66,2.66,0,0,0,.35-1.51l.23-.29Zm7.4-97c4.53,10.13,7.15,20.46,3,32,5.25-3.13,8.68-6.78,9.15-12.54.34-4.29-1.21-8.08-3.47-11.61a42,42,0,0,0-8.2-9.44c-.28-1-1-1.35-2.31-1.85ZM321,206a1.54,1.54,0,0,0-.08-.19.5.5,0,0,0-.13,0l.23.19c-.16,1.33.68,2.33,1.18,3.43a36.35,36.35,0,0,1,3.48,13.12c.41,7-2.11,13-6.88,18.13a58.71,58.71,0,0,1-10.13,8.75c-.84.56-2,1-2.29,2.21,1,.44,1.68-.17,2.35-.51a67.61,67.61,0,0,0,13.62-8.86A30,30,0,0,0,330.44,232c1.23-2.73,2.12-5.52,1.52-8.77-1.48,2.34-1.37,5.26-3.41,7.57-.3-1.78.39-3,.43-4.31a28.78,28.78,0,0,0-4.88-16.63C323.23,208.46,322.55,206.87,321,206ZM187.09,252.91a.59.59,0,0,0,.07.2s.11,0,.16,0l-.24-.23a2,2,0,0,0-.88-.94,82.37,82.37,0,0,1-10.38-7.62c-4.8-4.17-8.67-9-10-15.41a28.45,28.45,0,0,1,1.66-16.5c.9-2.24,1.9-4.45,2.85-6.67-6.3,7.23-10,15.29-7.88,25.19-1.69-2.4-2.3-5.2-3.46-8a3.51,3.51,0,0,0-.36,2.41,22.46,22.46,0,0,0,5.5,12.29c5.82,6.71,13.19,11.22,21.15,14.89A3,3,0,0,0,187.09,252.91Zm13.52,100.21c.06-.29,0-.44-.35-.42-1.3-2.13-2.11-4.54-4-6.34a50.94,50.94,0,0,0-5.55-4.83,133.83,133.83,0,0,0-11.7-7.09,48.19,48.19,0,0,1-8.9-6.06c-3.82-3.5-5.63-7.75-4.86-13,.06-.43.42-1-.23-1.42a16,16,0,0,0-2.92,4.35c-2.53,5-1.69,9,2.62,12.65a37.84,37.84,0,0,0,7.08,4.53c4.92,2.52,9.9,4.92,14.76,7.55a38.49,38.49,0,0,1,11.56,9,.57.57,0,0,0,.48.64l.74.89,2.39,3.77a5.58,5.58,0,0,0-1-3.74Zm44.72-185.36c-.24.33-.52.66-.74,1a79.9,79.9,0,0,0-11.94,48.28c.72,11.25,2.73,22.31,4.74,33.37,3,16.76,6.5,33.45,7.92,51a19.93,19.93,0,0,0,.79-4.57c.25-2.35.43-4.72.75-7.07,2-14.62,4.88-29.09,7.49-43.61,1.94-10.81,3.77-21.62,4.1-32.65a78.78,78.78,0,0,0-11.72-44.16C246.36,168.78,246.17,168.06,245.33,167.76ZM219.58,311.44c.57-.23.64-.78.81-1.27a24.8,24.8,0,0,0,.18-16.27c-2.16-6.84-6.52-12.15-11.8-16.8a161.28,161.28,0,0,0-21.36-15.78C175.72,254,163.83,247.07,152.62,239c-.35-.24-.7-.51-1.17-.32a99.28,99.28,0,0,0,4.26,21.06,46.82,46.82,0,0,0,23,27.55,109.56,109.56,0,0,0,16.87,7.32c4.14,1.42,8.33,2.72,12.47,4.15,6,2.1,10.34,5.84,11.31,12.55C219.41,311.39,219.51,311.41,219.58,311.44Zm51.55.35a5,5,0,0,0,.58-1.06c1-6,4.89-9.47,10.3-11.61,3.43-1.36,7-2.29,10.49-3.48,8.07-2.74,16-5.8,23.23-10.42a44.91,44.91,0,0,0,17.39-20c3.61-8.11,5.32-16.7,6.36-25.44,0-.38.25-.88-.2-1.05a1.25,1.25,0,0,0-1.07.37c-8.39,5.94-17.08,11.41-25.87,16.73-9.69,5.87-19.24,11.94-27.92,19.29-4.73,4-9.08,8.29-12,13.85A26.6,26.6,0,0,0,271.13,311.79ZM178.45,200.44A69.06,69.06,0,0,0,174,216.1a32.57,32.57,0,0,0,.15,11.27c1.4,6.85,5.23,12.18,10.41,16.66,5.88,5.07,12.48,9.09,19.05,13.16a84.48,84.48,0,0,1,13.07,9.31,32.26,32.26,0,0,1,8.93,13.76,58.28,58.28,0,0,1,2.22,10.94c.24-.34.46-.52.52-.74,2.44-8.94,2.14-17.54-3.12-25.55a56.53,56.53,0,0,0-9.18-10.47c-3.1-2.85-6.29-5.61-9.43-8.43a43.57,43.57,0,0,1-12.1-17.93c-.26-.74-.55-1.46-.83-2.18-1.22,5.29.05,10.35,1.27,15.47a25.7,25.7,0,0,1-6.25-6.81c-5.89-9.07-8.38-19.22-9.56-29.8C179,203.41,179.17,202,178.45,200.44Zm133.87.38c-.34.23-.24.59-.26.91a79.52,79.52,0,0,1-3.3,18.61c-2.27,7.48-5.6,14.38-11.23,20a3.68,3.68,0,0,1-1.81,1.32c2.46-10.89,2.68-13,1.65-15.68a4.42,4.42,0,0,0-.39.7c-2.86,8.89-8.31,15.94-15.4,21.87a119.87,119.87,0,0,0-12.38,11.79c-8.07,9-9.74,19.26-6.45,30.66.19-.16.4-.25.43-.38.14-.68.26-1.37.35-2.07A40.94,40.94,0,0,1,267,276.18c3-6.33,8-10.87,13.65-14.66,5-3.31,10.1-6.35,15.08-9.63,5.14-3.37,10.22-6.84,14.36-11.48a27.26,27.26,0,0,0,7.27-18.94c-.08-7.15-2.07-13.84-4.65-20.4C312.68,201,312.46,200.9,312.32,200.82ZM150.41,266.08a2.35,2.35,0,0,0-.18.43c-.13,1.05-.29,2.1-.36,3.15-1,15.15,4.47,27.09,17.38,35.38a78.19,78.19,0,0,0,10.27,5.35q4.68,2.1,9.33,4.28a8.63,8.63,0,0,1,3.22,2.24c1.29,1.62.7,3.29-1.3,3.83a4.37,4.37,0,0,1-2.82-.33c-.61-.24-1-1-1.91-.69a6,6,0,0,0,3,6.7,10.77,10.77,0,0,0,11.46-.51c2.9-2.14,4-5.84,3-10-.88-3.57-3.26-5.94-6.16-7.91a70.85,70.85,0,0,0-10.74-5.55c-4.08-1.86-8.16-3.7-12.06-5.91-11.29-6.4-18.78-15.64-21.38-28.55A3.59,3.59,0,0,0,150.41,266.08Zm189.85,0c-.1.46-.17.8-.24,1.14a40.44,40.44,0,0,1-18.78,27.68,96.64,96.64,0,0,1-11.37,6,135.44,135.44,0,0,0-12.77,6.2,18.31,18.31,0,0,0-6.22,5.58c-2.75,4.24-2.17,10.15,1.27,13a10.76,10.76,0,0,0,12.32.38c2.25-1.62,2.95-3.63,2.2-6.48a22,22,0,0,1-2.53,1.16,3.18,3.18,0,0,1-3.7-1.26c-.51-1.07-.05-2.28,1.33-3.39a16.66,16.66,0,0,1,3-1.71c5.58-2.76,11.45-4.9,16.85-8,15.92-9.25,20.95-22.54,19.38-38.89A1.75,1.75,0,0,0,340.26,266.05ZM206.85,216.54c-3.13,9.15-3.07,17.39,3.3,24.8a87.59,87.59,0,0,0,6.84,6.92c5.48,5.1,10.7,10.41,13.95,17.31.06.12.27.16.61.36a12.59,12.59,0,0,0,.15-4.14c-.39-5.86-3-10.74-6.74-15.1-2.69-3.12-5.47-6.17-8.11-9.33a43.45,43.45,0,0,1-9.28-18.66C207.43,218.11,207.19,217.55,206.85,216.54Zm52.57,49.59a6.13,6.13,0,0,0,.78-.87,48.79,48.79,0,0,1,10.44-13.8c2.52-2.45,5.11-4.83,7.6-7.31a28.57,28.57,0,0,0,6.21-8.45c2.54-5.7,2.06-11.46.3-17.24-.16-.54,0-1.29-.91-1.36-2.51,10.23-5.67,16.09-12.92,24a96.64,96.64,0,0,0-6.85,8A23.57,23.57,0,0,0,259.42,266.13Zm16.05-73a1,1,0,0,0-.26,1.07c1.09,3.75,1,7.61,1.06,11.46a30.76,30.76,0,0,1-4.5,15.7c-1.92,3.35-4.19,6.47-6.31,9.69a24,24,0,0,0-2.77,6.21,2.15,2.15,0,0,0,.17,1.88,108.65,108.65,0,0,1,6.45-9.91q3.38-4.37,6.59-8.84c4.58-6.37,7.08-13.27,6.22-21.34-.81-7.53-3.46-14.37-6.78-21.07,1.65,8,4.11,15.93,3.87,24.27A30.12,30.12,0,0,0,275.47,193.14Zm-59.8-14.4c-.52.27-.74.31-.8.44A66.45,66.45,0,0,0,209.36,195a30.65,30.65,0,0,0,.92,16.57,39.82,39.82,0,0,0,6.05,10.7c3.4,4.46,6.86,8.86,9.86,13.61a7.6,7.6,0,0,0,1.9,2.71c.37-2.59-.83-4.48-1.89-6.29-1.59-2.72-3.47-5.26-5.19-7.9a38.92,38.92,0,0,1-5-10.35,35.58,35.58,0,0,1-.58-17.89,2.29,2.29,0,0,0-.29-2.28c-1.84,2.68-2.46,5.65-3.61,8.4C211.75,194.31,213.71,186.66,215.67,178.74Zm-7.26-2.43A42.85,42.85,0,0,0,198,188.25a21.9,21.9,0,0,0-2.25,5.3,14.43,14.43,0,0,0,8.5,17.18C200,198.51,203.41,187.38,208.41,176.31ZM254.57,370.6a4.51,4.51,0,0,0,1.34,2.52c5.24,5.52,13.86,7.93,21.18,2.83a45.29,45.29,0,0,0,8.27-7.66c4.94-5.69,9.49-11.72,15-16.93.46-.44,1.23-.76,1-1.8a3.19,3.19,0,0,0-2.2,1.16,63.83,63.83,0,0,0-7.91,7.32c-2.59,3.11-5.56,5.85-8.34,8.76a37,37,0,0,1-7.58,6.07c-5.35,3.25-10.75,3.73-16.33.43C257.56,372.49,256.42,371.22,254.57,370.6Zm-32-46.78a11.73,11.73,0,0,0,4-5.38,29.7,29.7,0,0,0,1.42-20.26c-2.14-8.27-6.77-15.13-12.2-21.54a.74.74,0,0,0-.93-.28c-.38.6.19.94.43,1.36a77,77,0,0,1,9.62,24.87,35.15,35.15,0,0,1-.5,15.87C223.86,320.28,223.15,322,222.54,323.82Zm44.37-122.28c.41-.38.62-.48.65-.61a45,45,0,0,0,.72-18.48,27.11,27.11,0,0,0-9.13-15.84,15.17,15.17,0,0,0-6.06-3.57C263,174,267.54,186.7,266.91,201.54ZM145.16,248c-5-11.47-5.88-23.42-4.5-36.16a9.81,9.81,0,0,0-1.06,2.67c-1.25,4.73-1,9.55-1.09,14.37a32.88,32.88,0,0,0,2.18,12.08C141.66,243.54,142.77,246.09,145.16,248ZM302.4,349.25c.15-.06.36-.09.44-.21a.44.44,0,0,0-.07-.42.36.36,0,0,0-.56.25C302.18,349,302.33,349.12,302.4,349.25ZM215.76,177.39c0,.06-.07.13-.06.19.05.22.15.23.24,0a.22.22,0,0,0,0-.19S215.81,177.39,215.76,177.39Zm88.68,75.18-.09.11.13,0Zm1.05-.55-.1.13.16,0Z" transform="translate(-124.83 -71.42)" fill="#fdfcfb"/><path d="M329,333.7c.16-1.95,1.82-2.94,2.92-4.18,6.27-7,10.28-15.12,13-24.09,3.83-12.86,6.62-25.93,9.2-39.07.68-3.43,1.19-6.89,1.72-10.35a3.14,3.14,0,0,0-.14-2.25c-.81,0-1,.63-1.35,1.12a37.32,37.32,0,0,1-5.68,6.55c-.5.47-.93,1.08-1.76,1h0c1.49-2.86,3.47-5.43,4.79-8.39s2.63-5.73,3.95-8.6a1.28,1.28,0,0,0,0-1.26c-1.69,1.89-2.93,4-4.76,5.67s-3.32,3.55-5.88,4.67c0-1.14.73-1.56,1.23-2.06a34.74,34.74,0,0,0,9.56-18.65,42.41,42.41,0,0,0-2.33-22.67,44,44,0,0,0-3.36-7.4c-1-1.64-1.24-1.71-2.73-.47-.95.78-1.8,1.67-2.68,2.52a12.57,12.57,0,0,1-3.14,2.33c-.56-.82-.06-1.39.19-2,1.09-.17,1.21-1.16,1.58-1.9,1.43-2.92,2.8-5.86,4.24-8.76.34-.68.46-1.52,1.31-2a52.82,52.82,0,0,1,11.26,22.31,63.8,63.8,0,0,1,.89,23.53,595,595,0,0,1-11.44,61,92.45,92.45,0,0,1-5.74,17.18A38.7,38.7,0,0,1,329.5,333.6,1.59,1.59,0,0,1,329,333.7Zm27-81.46c0,.08-.09.16-.07.22.06.25.18.26.28,0a.35.35,0,0,0,0-.22S356.07,252.25,356,252.24Z" transform="translate(-124.83 -71.42)" fill="#bbbbbf"/><path d="M149,207a1.33,1.33,0,0,1-1.44-.34c-1-.77-1.93-1.53-2.83-2.35-2.71-2.47-2.83-2.55-4.42.61-6.09,12.15-7.76,24.62-2.31,37.48a34.13,34.13,0,0,0,5.93,9.24,3.78,3.78,0,0,1,1.45,2.21c-2.3-.91-3.75-2.54-5.33-4s-2.8-3.52-4.61-5.66a13.94,13.94,0,0,0,1.77,5.42,74.61,74.61,0,0,0,6,11.08,2.71,2.71,0,0,1,.66,1.68l0,0c-1.88-.59-2.9-2.2-4.05-3.58-1.62-1.93-3.06-4-4.69-6.15-.66,1.89.14,3.55.41,5.15,1.78,10.59,3.7,21.16,6.26,31.6a190.1,190.1,0,0,0,7,23.62,56.31,56.31,0,0,0,11.81,18.16c.75.8,1.87,1.41,1.76,2.77A36.78,36.78,0,0,1,147,316.93c-3.16-7-5.08-14.36-6.76-21.8-3.44-15.3-6.48-30.68-8.87-46.18a137.69,137.69,0,0,1-2-17.75c-.31-13.42,3.24-25.65,11.62-36.3.37-.47.64-1.06,1.48-1.27,2.51,4.22,4.08,9,6.69,13.16l-.05,0,.08.2Z" transform="translate(-124.83 -71.42)" fill="#bbbbbf"/><path d="M345.82,187c-.85-.57-.54-1.43-.45-2.16.59-4.43.72-8.9,1.11-13.34a186.91,186.91,0,0,0,.31-21.3,166.14,166.14,0,0,0-1.33-17.79c-.3-2.39-.66-4.77-1-7.18a109.29,109.29,0,0,1-2.37,23.32c.52-4.26-.46-8.45-.51-12.68a98.86,98.86,0,0,0-1.62-14.32,240.62,240.62,0,0,0-5.66-26.15c-1.17-4.22-2.48-8.4-3.68-12.61-.15-.56-.93-1.25.05-1.82,1,.58,1.28,1.63,1.8,2.51A118.67,118.67,0,0,1,346.32,121a169.81,169.81,0,0,1,2.47,44.5,201.06,201.06,0,0,1-2.51,20.6A1.19,1.19,0,0,1,345.82,187Z" transform="translate(-124.83 -71.42)" fill="#bbbbbf"/><path d="M160,81.5c1,.36.39,1,.25,1.51-1.41,5-3,9.9-4.23,14.89a236.87,236.87,0,0,0-4.93,23.59,167.41,167.41,0,0,0-2.17,26.93,46.49,46.49,0,0,1-1.85-11.92c-.17-4.08,0-8.16-.23-12.25A42.51,42.51,0,0,0,145.4,133c-.62,6-.9,12-1.22,18.06-.2,3.95-.17,7.88-.29,11.81-.06,1.75.77,3.45.27,5.22l-1.65-.05a131.93,131.93,0,0,1-.77-18.64c.33-16.86,2.93-33.32,8.89-49.17a111.52,111.52,0,0,1,8.16-17C159.14,82.56,159.32,81.83,160,81.5Z" transform="translate(-124.83 -71.42)" fill="#bbbbbf"/><path d="M142.51,168l1.65.05c.23,3.37.37,6.76.7,10.12.34,3.54.85,7.06,1.29,10.58.13,1,.58,2-.14,3-1-1.89-1-4-1.38-6.07-1-5.59-1.68-11.24-2.21-16.9A4.15,4.15,0,0,1,142.51,168Z" transform="translate(-124.83 -71.42)" fill="#b2b2b4"/><path d="M345.25,190.17c-.66-.88-.78-1.66.43-2.17A2.11,2.11,0,0,1,345.25,190.17Z" transform="translate(-124.83 -71.42)" fill="#bbbbbf"/><path d="M344.74,192.81c-.72-.76-.57-1.3.39-1.65A1.49,1.49,0,0,1,344.74,192.81Z" transform="translate(-124.83 -71.42)" fill="#bbbbbf"/><path d="M146.11,192.73c.92.36,1,.93.4,1.65A1.6,1.6,0,0,1,146.11,192.73Z" transform="translate(-124.83 -71.42)" fill="#b2b2b4"/><path d="M344.22,195.44c-.57-.56-.43-.92.31-1.14A1,1,0,0,1,344.22,195.44Z" transform="translate(-124.83 -71.42)" fill="#bbbbbf"/><path d="M147.43,198.6a2.39,2.39,0,0,1,.21.34s-.06.13-.1.19a2.64,2.64,0,0,1-.23-.35S147.39,198.66,147.43,198.6Z" transform="translate(-124.83 -71.42)" fill="#b2b2b4"/><path d="M343.76,197.64a.43.43,0,0,1,.18-.66A.43.43,0,0,1,343.76,197.64Z" transform="translate(-124.83 -71.42)" fill="#bbbbbf"/><path d="M146.82,195.92a2.11,2.11,0,0,1,.26.4s-.07.14-.1.22a2.27,2.27,0,0,1-.29-.4S146.77,196,146.82,195.92Z" transform="translate(-124.83 -71.42)" fill="#b2b2b4"/><path d="M245.33,167.76c.84.3,1,1,1.39,1.61a78.78,78.78,0,0,1,11.72,44.16c-.33,11-2.16,21.84-4.1,32.65-2.61,14.52-5.51,29-7.49,43.61-.32,2.35-.5,4.72-.75,7.07a19.93,19.93,0,0,1-.79,4.57c-1.42-17.55-4.88-34.24-7.92-51-2-11.06-4-22.12-4.74-33.37a79.9,79.9,0,0,1,11.94-48.28C244.81,168.42,245.09,168.09,245.33,167.76Z" transform="translate(-124.83 -71.42)" fill="#bf1c19"/><path d="M327.35,198.6c-11.49-5-22.23-11.17-30.62-20.77a38.21,38.21,0,0,1-5.55-8.6,4.59,4.59,0,0,1-.16-4c9.37-23.43,20.28-46.09,33.88-67.39a6.48,6.48,0,0,1,1.75-2.22,4.07,4.07,0,0,1-.11,2c-2.26,13.26-2.76,26.53-.24,39.82a64.51,64.51,0,0,0,5.4,16.45c.57,1.16,1,2.38,1.51,3.57,0,.38.17.55.54.5h0a2.67,2.67,0,0,1-.58,1.69c-.49,0-.71-.43-1-.7-.05-.45-.22-.74-.75-.62l-.08-.08c-.05-.91-.81-1-1.44-1.2-6.31-5.1-10.2-11.89-13.35-19.23A50.82,50.82,0,0,0,319.69,153a79.78,79.78,0,0,0,5.1,11.55,10.5,10.5,0,0,1,1.19,2.9l-1.23,0c-4.48-3.66-8.56-7.68-11.51-13.48a13.35,13.35,0,0,0,.07,4.07A47.31,47.31,0,0,0,322,179.23c.75,1,1.7,1.94,1.77,3.32-.82.53-1.49-.39-2.27-.23l0,0a.53.53,0,0,0-.61-.45c-.09-.53-.45-.7-.94-.69a41,41,0,0,1-6.83-6.34,13.07,13.07,0,0,0-2.66-3.65c-.15-.07.05-.42-.28-.36l.32.33a7.46,7.46,0,0,0,1.51,4.28,56.76,56.76,0,0,0,9.92,15.29c2.22,2.56,4.66,4.92,7,7.37-.22.5-.72.43-1.12.56h0C327.73,198.33,327.56,198.34,327.35,198.6Z" transform="translate(-124.83 -71.42)" fill="#be1e1a"/><path d="M155.93,159.52a56.86,56.86,0,0,0,8.18-19.5,96.18,96.18,0,0,0,2.06-27.23,124.61,124.61,0,0,0-1.74-15.18,17.2,17.2,0,0,1-.16-1.78c1.2.53,1.52,1.57,2,2.37a366.54,366.54,0,0,1,25.08,46.86q4.45,9.84,8.44,19.87a5.23,5.23,0,0,1-.12,4.52,43.69,43.69,0,0,1-11.8,14.67,95.32,95.32,0,0,1-24.1,14.4c-.6-.12-1.41.33-1.7-.62a77.93,77.93,0,0,0,14.58-17.78c1-1.69,1.23-3.72,2.55-5.24a3.75,3.75,0,0,0,1-3.19c.36.1.4-.13.4-.39,0-.07-.08-.14-.12-.2l-.24.63c-1.17.81-1.73,2.1-2.52,3.2l-1.63,1.56c-1.53,1.47-3.72,2.24-4.64,4.36l-.14-.17.12.18c-1,.17-1.85.44-2.11,1.57l-.13-.19.13.19c-1.68.3-1.68.3-1.75-1.25a48.69,48.69,0,0,0,9.14-18.46,34.86,34.86,0,0,0,1.12-8.4,39,39,0,0,1-8.13,10c-.77.07-1.36.35-1.36,1.25l0,0a1.74,1.74,0,0,0-1.75,1.05l-.59.81c-.73-.36-.34-1.07-.52-1.6A79.29,79.29,0,0,0,173.59,145c.13-.59.19-1.2.29-1.8a.94.94,0,0,0,.18-1c.09-.52.19-1,.28-1.55l.3-1.52a2.88,2.88,0,0,0,.13-2.46,2.26,2.26,0,0,0-.94,1.77c-.11.4-.58.66-.41,1.16a44.18,44.18,0,0,1-10.53,16,27.64,27.64,0,0,1-5.95,4.48A.89.89,0,0,1,155.93,159.52Z" transform="translate(-124.83 -71.42)" fill="#be1e1a"/><path d="M219.58,311.44c-.07,0-.17-.05-.18-.09-1-6.71-5.26-10.45-11.31-12.55-4.14-1.43-8.33-2.73-12.47-4.15a109.56,109.56,0,0,1-16.87-7.32,46.82,46.82,0,0,1-23-27.55,99.28,99.28,0,0,1-4.26-21.06c.47-.19.82.08,1.17.32,11.21,8,23.1,15,34.79,22.28a161.28,161.28,0,0,1,21.36,15.78c5.28,4.65,9.64,10,11.8,16.8a24.8,24.8,0,0,1-.18,16.27C220.22,310.66,220.15,311.21,219.58,311.44Zm-10.08-20c.67,0,1.27.19,1.59-.35s-.11-1-.4-1.41a10.64,10.64,0,0,0-1-1.22,68.4,68.4,0,0,0-7.8-7A151.07,151.07,0,0,0,184.61,270c-3.49-2-7.08-3.86-10.66-5.69-1.56-.8-2-.46-2.07,1.28a20.64,20.64,0,0,0,1.66,8.71c2,4.73,5.66,7.94,10.1,10.31C191.77,288.92,200.73,290.14,209.5,291.47Z" transform="translate(-124.83 -71.42)" fill="#bd1d1a"/><path d="M271.13,311.79A26.6,26.6,0,0,1,272.44,289c2.9-5.56,7.25-9.85,12-13.85,8.68-7.35,18.23-13.42,27.92-19.29,8.79-5.32,17.48-10.79,25.87-16.73a1.25,1.25,0,0,1,1.07-.37c.45.17.25.67.2,1.05-1,8.74-2.75,17.33-6.36,25.44a44.91,44.91,0,0,1-17.39,20c-7.23,4.62-15.16,7.68-23.23,10.42-3.49,1.19-7.06,2.12-10.49,3.48-5.41,2.14-9.28,5.59-10.3,11.61A5,5,0,0,1,271.13,311.79Zm8.3-20.72a3.27,3.27,0,0,0,2.66.28,117.39,117.39,0,0,0,15.46-2.94c5.25-1.52,10.33-3.44,14.57-7,5.12-4.33,7.23-9.95,6.85-16.58-.05-.93-.45-1.29-1.34-.89-.64.29-1.26.61-1.88.94A218.32,218.32,0,0,0,296.69,276a84,84,0,0,0-15,12.27A8.47,8.47,0,0,0,279.43,291.07Z" transform="translate(-124.83 -71.42)" fill="#bd1d1a"/><path d="M178.45,200.44c.72,1.56.55,3,.7,4.32,1.18,10.58,3.67,20.73,9.56,29.8a25.7,25.7,0,0,0,6.25,6.81c-1.22-5.12-2.49-10.18-1.27-15.47.28.72.57,1.44.83,2.18A43.57,43.57,0,0,0,206.62,246c3.14,2.82,6.33,5.58,9.43,8.43a56.53,56.53,0,0,1,9.18,10.47c5.26,8,5.56,16.61,3.12,25.55-.06.22-.28.4-.52.74a58.28,58.28,0,0,0-2.22-10.94,32.26,32.26,0,0,0-8.93-13.76,84.48,84.48,0,0,0-13.07-9.31c-6.57-4.07-13.17-8.09-19.05-13.16-5.18-4.48-9-9.81-10.41-16.66A32.57,32.57,0,0,1,174,216.1,69.06,69.06,0,0,1,178.45,200.44Z" transform="translate(-124.83 -71.42)" fill="#be201b"/><path d="M312.32,200.82c.14.08.36.13.4.25,2.58,6.56,4.57,13.25,4.65,20.4a27.26,27.26,0,0,1-7.27,18.94c-4.14,4.64-9.22,8.11-14.36,11.48-5,3.28-10.12,6.32-15.08,9.63C275,265.31,270,269.85,267,276.18a40.94,40.94,0,0,0-3.48,12.35c-.09.7-.21,1.39-.35,2.07,0,.13-.24.22-.43.38-3.29-11.4-1.62-21.67,6.45-30.66a119.87,119.87,0,0,1,12.38-11.79c7.09-5.93,12.54-13,15.4-21.87a4.42,4.42,0,0,1,.39-.7c1,2.67.81,4.79-1.65,15.68a3.68,3.68,0,0,0,1.81-1.32c5.63-5.6,9-12.5,11.23-20a79.52,79.52,0,0,0,3.3-18.61C312.08,201.41,312,201.05,312.32,200.82Z" transform="translate(-124.83 -71.42)" fill="#be201b"/><path d="M150.41,266.08a3.59,3.59,0,0,1,.72,1.95c2.6,12.91,10.09,22.15,21.38,28.55,3.9,2.21,8,4.05,12.06,5.91A70.85,70.85,0,0,1,195.31,308c2.9,2,5.28,4.34,6.16,7.91,1,4.12-.07,7.82-3,10a10.77,10.77,0,0,1-11.46.51,6,6,0,0,1-3-6.7c.86-.29,1.3.45,1.91.69a4.37,4.37,0,0,0,2.82.33c2-.54,2.59-2.21,1.3-3.83a8.63,8.63,0,0,0-3.22-2.24q-4.65-2.18-9.33-4.28A78.19,78.19,0,0,1,167.25,305c-12.91-8.29-18.42-20.23-17.38-35.38.07-1.05.23-2.1.36-3.15A2.35,2.35,0,0,1,150.41,266.08Z" transform="translate(-124.83 -71.42)" fill="#be201b"/><path d="M340.26,266.05a1.75,1.75,0,0,1,.69,1.41c1.57,16.35-3.46,29.64-19.38,38.89-5.4,3.13-11.27,5.27-16.85,8a16.66,16.66,0,0,0-3,1.71c-1.38,1.11-1.84,2.32-1.33,3.39a3.18,3.18,0,0,0,3.7,1.26,22,22,0,0,0,2.53-1.16c.75,2.85.05,4.86-2.2,6.48a10.76,10.76,0,0,1-12.32-.38c-3.44-2.84-4-8.75-1.27-13a18.31,18.31,0,0,1,6.22-5.58,135.44,135.44,0,0,1,12.77-6.2,96.64,96.64,0,0,0,11.37-6A40.44,40.44,0,0,0,340,267.19C340.09,266.85,340.16,266.51,340.26,266.05Z" transform="translate(-124.83 -71.42)" fill="#be201b"/><path d="M206.85,216.54c.34,1,.58,1.57.72,2.16a43.45,43.45,0,0,0,9.28,18.66c2.64,3.16,5.42,6.21,8.11,9.33,3.75,4.36,6.35,9.24,6.74,15.1a12.59,12.59,0,0,1-.15,4.14c-.34-.2-.55-.24-.61-.36-3.25-6.9-8.47-12.21-13.95-17.31a87.59,87.59,0,0,1-6.84-6.92C203.78,233.93,203.72,225.69,206.85,216.54Z" transform="translate(-124.83 -71.42)" fill="#bc231d"/><path d="M259.42,266.13a23.57,23.57,0,0,1,4.65-17,96.64,96.64,0,0,1,6.85-8c7.25-7.95,10.41-13.81,12.92-24,.87.07.75.82.91,1.36,1.76,5.78,2.24,11.54-.3,17.24a28.57,28.57,0,0,1-6.21,8.45c-2.49,2.48-5.08,4.86-7.6,7.31a48.79,48.79,0,0,0-10.44,13.8A6.13,6.13,0,0,1,259.42,266.13Z" transform="translate(-124.83 -71.42)" fill="#bc231d"/><path d="M198.13,352.07a38.49,38.49,0,0,0-11.56-9c-4.86-2.63-9.84-5-14.76-7.55a37.84,37.84,0,0,1-7.08-4.53c-4.31-3.61-5.15-7.63-2.62-12.65A16,16,0,0,1,165,314c.65.46.29,1,.23,1.42-.77,5.23,1,9.48,4.86,13a48.19,48.19,0,0,0,8.9,6.06,133.83,133.83,0,0,1,11.7,7.09,50.94,50.94,0,0,1,5.55,4.83c1.88,1.8,2.69,4.21,4,6.34a.42.42,0,0,0,.35.42l.18.51-1.44,0-.74-.89Z" transform="translate(-124.83 -71.42)" fill="#bb271f"/><path d="M290.9,352c.93-2.63,2.83-4.57,4.7-6.5,3.2-3.33,7.1-5.7,11-8,3.18-1.86,6.37-3.69,9.53-5.58a28.84,28.84,0,0,0,5.2-4A13.45,13.45,0,0,0,325.81,317c-.06-1-.11-1.92-.17-2.9,5.14,3.5,6.05,11.35,1.82,15.72a23,23,0,0,1-5.93,4.33c-4.52,2.34-9.06,4.61-13.59,6.93a53.49,53.49,0,0,0-13.83,9.49,3.68,3.68,0,0,1-.9.48.7.7,0,0,0-.56.59.42.42,0,0,1-.25.35.43.43,0,0,0-.34.58h0A1.05,1.05,0,0,1,290.9,352Z" transform="translate(-124.83 -71.42)" fill="#bb271f"/><path d="M275.47,193.14a30.12,30.12,0,0,1,3.74,9.12c.24-8.34-2.22-16.23-3.87-24.27,3.32,6.7,6,13.54,6.78,21.07.86,8.07-1.64,15-6.22,21.34q-3.22,4.47-6.59,8.84a108.65,108.65,0,0,0-6.45,9.91,2.15,2.15,0,0,1-.17-1.88,24,24,0,0,1,2.77-6.21c2.12-3.22,4.39-6.34,6.31-9.69a30.76,30.76,0,0,0,4.5-15.7c0-3.85,0-7.71-1.06-11.46A1,1,0,0,1,275.47,193.14Z" transform="translate(-124.83 -71.42)" fill="#c2c2c5"/><path d="M215.67,178.74c-2,7.92-3.92,15.57-4.17,23.54,1.15-2.75,1.77-5.72,3.61-8.4a2.29,2.29,0,0,1,.29,2.28,35.58,35.58,0,0,0,.58,17.89,38.92,38.92,0,0,0,5,10.35c1.72,2.64,3.6,5.18,5.19,7.9,1.06,1.81,2.26,3.7,1.89,6.29a7.6,7.6,0,0,1-1.9-2.71c-3-4.75-6.46-9.15-9.86-13.61a39.82,39.82,0,0,1-6.05-10.7,30.65,30.65,0,0,1-.92-16.57,66.45,66.45,0,0,1,5.51-15.82C214.93,179.05,215.15,179,215.67,178.74Z" transform="translate(-124.83 -71.42)" fill="#c2c2c5"/><path d="M187.09,252.91a3,3,0,0,1-1.77-.36c-8-3.67-15.33-8.18-21.15-14.89a22.46,22.46,0,0,1-5.5-12.29A3.51,3.51,0,0,1,159,223c1.16,2.81,1.77,5.61,3.46,8-2.07-9.9,1.58-18,7.88-25.19-1,2.22-2,4.43-2.85,6.67a28.45,28.45,0,0,0-1.66,16.5c1.29,6.4,5.16,11.24,10,15.41A82.37,82.37,0,0,0,186.2,252a2,2,0,0,1,.88.94Z" transform="translate(-124.83 -71.42)" fill="#c2c2c5"/><path d="M208.41,176.31c-5,11.07-8.44,22.2-4.2,34.42a14.43,14.43,0,0,1-8.5-17.18,21.9,21.9,0,0,1,2.25-5.3A42.85,42.85,0,0,1,208.41,176.31Z" transform="translate(-124.83 -71.42)" fill="#bc231d"/><path d="M321,206c1.53.87,2.21,2.46,3.08,3.84A28.78,28.78,0,0,1,329,226.47c0,1.32-.73,2.53-.43,4.31,2-2.31,1.93-5.23,3.41-7.57.6,3.25-.29,6-1.52,8.77a30,30,0,0,1-8.07,10.26,67.61,67.61,0,0,1-13.62,8.86c-.67.34-1.31,1-2.35.51.33-1.21,1.45-1.65,2.29-2.21a58.71,58.71,0,0,0,10.13-8.75c4.77-5.09,7.29-11.11,6.88-18.13a36.35,36.35,0,0,0-3.48-13.12c-.5-1.1-1.34-2.1-1.18-3.43Z" transform="translate(-124.83 -71.42)" fill="#c2c2c5"/><path d="M284.07,177.54a42,42,0,0,1,8.2,9.44c2.26,3.53,3.81,7.32,3.47,11.61-.47,5.76-3.9,9.41-9.15,12.54,4.13-11.58,1.51-21.91-3-32C283.82,178.6,283.21,177.84,284.07,177.54Z" transform="translate(-124.83 -71.42)" fill="#bc231d"/><path d="M254.57,370.6c1.85.62,3,1.89,4.36,2.7,5.58,3.3,11,2.82,16.33-.43a37,37,0,0,0,7.58-6.07c2.78-2.91,5.75-5.65,8.34-8.76a63.83,63.83,0,0,1,7.91-7.32,3.19,3.19,0,0,1,2.2-1.16c.26,1-.51,1.36-1,1.8-5.47,5.21-10,11.24-15,16.93a45.29,45.29,0,0,1-8.27,7.66c-7.32,5.1-15.94,2.69-21.18-2.83A4.51,4.51,0,0,1,254.57,370.6Z" transform="translate(-124.83 -71.42)" fill="#c2c2c5"/><path d="M188.72,348.83a16.47,16.47,0,0,1,5.54,3.88c3.9,3.79,7.77,7.6,11.37,11.68A42.38,42.38,0,0,0,215.86,373c6.65,3.92,12,3.49,18.78-1.33.63-.45,1.07-1.2,2-1.17l.06,0a14.42,14.42,0,0,1-7.41,6.74c-6.79,3-12.77,1.37-18.12-3.46-4.7-4.26-8.63-9.22-12.74-14-2.79-3.26-5.35-6.72-8.84-9.32a2.13,2.13,0,0,1-1-1.5Z" transform="translate(-124.83 -71.42)" fill="#c2c2c5"/><path d="M268.24,324.16c-2.1-1.74-3.13-4.16-4.12-6.58-3.3-8-2.67-16,.41-24a58.48,58.48,0,0,1,9-15,8.75,8.75,0,0,1,2.62-2.52l.08.07a2.74,2.74,0,0,1-.36,1.5A91.41,91.41,0,0,0,269,292.08a50.29,50.29,0,0,0-3.27,21.6,30.6,30.6,0,0,0,2.12,8.35,5.07,5.07,0,0,1,.55,2Z" transform="translate(-124.83 -71.42)" fill="#c2c2c5"/><path d="M222.54,323.82c.61-1.79,1.32-3.54,1.81-5.36a35.15,35.15,0,0,0,.5-15.87,77,77,0,0,0-9.62-24.87c-.24-.42-.81-.76-.43-1.36a.74.74,0,0,1,.93.28c5.43,6.41,10.06,13.27,12.2,21.54a29.7,29.7,0,0,1-1.42,20.26A11.73,11.73,0,0,1,222.54,323.82Z" transform="translate(-124.83 -71.42)" fill="#c2c2c5"/><path d="M238.25,162.76c-.05,1.1-1,1.62-1.62,2.3a44.93,44.93,0,0,0-10.55,18.81,53.88,53.88,0,0,0-2,17.74c-1.08-1.63-1.07-3.14-1.35-4.55-1.54-8-.86-15.68,3-22.93a24.31,24.31,0,0,1,12.53-11.4Z" transform="translate(-124.83 -71.42)" fill="#c2c2c5"/><path d="M266.91,201.54c.63-14.84-4-27.59-13.82-38.5a15.17,15.17,0,0,1,6.06,3.57,27.11,27.11,0,0,1,9.13,15.84,45,45,0,0,1-.72,18.48C267.53,201.06,267.32,201.16,266.91,201.54Z" transform="translate(-124.83 -71.42)" fill="#c2c2c5"/><path d="M268.28,370c-6-1.6-11.51-6.68-12-12.77a11.83,11.83,0,0,1,.69-4.11c1.1-3.83,5.34-9.33,8.76-11.41.2.71-.31,1.13-.63,1.61a18.38,18.38,0,0,0-3,7.53,14.11,14.11,0,0,0,2.51,10c.38.58,1,1,1,1.8h0c-2.65-.14-3.44-2.39-4.61-4.16-.42-.63-.55-1.44-1-2.1a13.42,13.42,0,0,0,3.54,8.73c1.51,1.7,3.4,3,4.72,4.9Z" transform="translate(-124.83 -71.42)" fill="#c2c2c5"/><path d="M222.41,370c.37-.86,1.21-1.22,1.87-1.78,3.9-3.24,6.62-7.14,6.87-12.44-1.23,2.64-2.24,5.46-5.23,6.74-.46-.75,0-1.18.28-1.56,3.67-5.47,3.3-11,.34-16.6a3,3,0,0,1-.49-1.73l.09-.09a22.6,22.6,0,0,1,7.73,10.34,10.85,10.85,0,0,1-2.65,11.82,22.26,22.26,0,0,1-6.8,4.83,3.36,3.36,0,0,1-2,.47Z" transform="translate(-124.83 -71.42)" fill="#c2c2c5"/><path d="M195.51,148.52c2.24,3.45,3.84,7.26,5.89,10.82a32.31,32.31,0,0,0,1.71,3.25c2.24,3,1.53,6,.33,9.14-2.39,6.19-6.73,10.78-12,14.64-.7.51-1.43,1-2.15,1.48-.06,0-.17,0-.47,0-.1-1.28,1-1.8,1.68-2.32a32.79,32.79,0,0,0,7.66-8.9,37.6,37.6,0,0,0,3.65-7.25,5.3,5.3,0,0,0-.07-4.29c-2-4.57-3.78-9.23-5.68-13.84a5.11,5.11,0,0,1-.56-2.79Z" transform="translate(-124.83 -71.42)" fill="#c2c2c5"/><path d="M302.55,188.08A9,9,0,0,1,299,186c-6.1-4.58-10.84-10.13-12.5-17.86a4.56,4.56,0,0,1,.28-3.29c2.73-5.2,5.43-10.41,8.15-15.61.07-.14.26-.22.44-.36.63.41.19.88,0,1.28-2.16,5.27-4.3,10.53-6.53,15.77a3.42,3.42,0,0,0,0,2.75,38.29,38.29,0,0,0,8.22,13.6,28.89,28.89,0,0,0,5,4.64,1.37,1.37,0,0,1,.56,1.14Z" transform="translate(-124.83 -71.42)" fill="#c2c2c5"/><path d="M345.23,248.65c1.39-3.77,3.12-7.43,4-11.4a62.36,62.36,0,0,0,1.46-10.11c.11-2.53.45-5,.39-7.6,0-1.75-.67-3.44-.48-5.22a6.22,6.22,0,0,1,.22-1.46,46.85,46.85,0,0,1,1.54,18.88,58.29,58.29,0,0,1-1.25,7,27.92,27.92,0,0,1-4.68,9.36,1.51,1.51,0,0,1-1.05.7Z" transform="translate(-124.83 -71.42)" fill="#c2c2c5"/><path d="M145.16,248c-2.39-1.89-3.5-4.44-4.47-7a32.88,32.88,0,0,1-2.18-12.08c0-4.82-.16-9.64,1.09-14.37a9.81,9.81,0,0,1,1.06-2.67C139.28,224.56,140.2,236.51,145.16,248Z" transform="translate(-124.83 -71.42)" fill="#c2c2c5"/><path d="M167.58,181.18c.07,1.55.07,1.55,1.75,1.25a14.78,14.78,0,0,1-4.8,3.12l-.57-.47A30.36,30.36,0,0,1,167.58,181.18Z" transform="translate(-124.83 -71.42)" fill="#b65349"/><path d="M290.9,352a1.05,1.05,0,0,0,1.16.64c-.55,1.77-2,3-2.83,4.6A9.42,9.42,0,0,1,290.9,352Z" transform="translate(-124.83 -71.42)" fill="#b65349"/><path d="M321.48,182.32c.78-.16,1.45.76,2.27.23l0,.11c.19.74.74.7,1.31.61,1,.13,1.3,1,1.83,1.59l-.49.72A16.69,16.69,0,0,1,321.48,182.32Z" transform="translate(-124.83 -71.42)" fill="#b65349"/><path d="M312,175.46a7.46,7.46,0,0,1-1.51-4.28l0,0a12.88,12.88,0,0,1,2.66,3.64A1,1,0,0,0,312,175.46Z" transform="translate(-124.83 -71.42)" fill="#e9bfb2"/><path d="M171.46,180.85c.92-2.12,3.11-2.89,4.64-4.36A13,13,0,0,1,171.46,180.85Z" transform="translate(-124.83 -71.42)" fill="#b65349"/><path d="M333.16,159.62a2.67,2.67,0,0,0,.58-1.69c1.13.64,1.37,1.91,2.62,3.16A5.1,5.1,0,0,1,333.16,159.62Z" transform="translate(-124.83 -71.42)" fill="#b65349"/><path d="M199.35,353.6l1.44,0a5.58,5.58,0,0,1,1,3.74Z" transform="translate(-124.83 -71.42)" fill="#b65349"/><path d="M165.44,165.89c.18.53-.21,1.24.52,1.6-.3,1-1.26,1.18-2.34,2A12.4,12.4,0,0,1,165.44,165.89Z" transform="translate(-124.83 -71.42)" fill="#b65349"/><path d="M180.21,171.69a3.75,3.75,0,0,1-1,3.19l-1.5.05c.79-1.1,1.35-2.39,2.52-3.2Z" transform="translate(-124.83 -71.42)" fill="#e9bfb2"/><path d="M162.1,197.9c.29.95,1.1.5,1.7.62a11.05,11.05,0,0,1-3.92,1.58A4,4,0,0,1,162.1,197.9Z" transform="translate(-124.83 -71.42)" fill="#bf776c"/><path d="M284.07,177.54c-.86.3-.25,1.06-.5,1.55l-1.81-3.4C283.07,176.19,283.79,176.57,284.07,177.54Z" transform="translate(-124.83 -71.42)" fill="#bf776c"/><path d="M327.81,198.68c.4-.13.9-.06,1.12-.56.93.14,1.39.83,2.15,1.7A5.15,5.15,0,0,1,327.81,198.68Z" transform="translate(-124.83 -71.42)" fill="#b65349"/><path d="M324.75,167.48l1.23,0c1,0,.87.89,1.44,1.6A3.15,3.15,0,0,1,324.75,167.48Z" transform="translate(-124.83 -71.42)" fill="#bf776c"/><path d="M326.36,185.58l.49-.72a2.18,2.18,0,0,1,1.34,1.45C327.32,186.57,326.84,186.07,326.36,185.58Z" transform="translate(-124.83 -71.42)" fill="#bf776c"/><path d="M155.93,159.52a.89.89,0,0,0,1,.53,1.66,1.66,0,0,1-1.83,1A1.72,1.72,0,0,1,155.93,159.52Z" transform="translate(-124.83 -71.42)" fill="#bf776c"/><path d="M174.64,139.1l-.3,1.52c-.42-.26-.37-.92-.92-1.05-.17-.5.3-.76.41-1.16C174.38,138.32,174.44,138.79,174.64,139.1Z" transform="translate(-124.83 -71.42)" fill="#e9bfb2"/><path d="M169.33,182.43c.26-1.13,1.14-1.4,2.11-1.57A3.87,3.87,0,0,1,169.33,182.43Z" transform="translate(-124.83 -71.42)" fill="#b65349"/><path d="M166.55,166.68a1.74,1.74,0,0,1,1.75-1.05C167.9,166.27,167.46,166.86,166.55,166.68Z" transform="translate(-124.83 -71.42)" fill="#b65349"/><path d="M302.4,349.25c-.07-.13-.22-.28-.19-.38a.36.36,0,0,1,.56-.25.44.44,0,0,1,.07.42C302.76,349.16,302.55,349.19,302.4,349.25Z" transform="translate(-124.83 -71.42)" fill="#c2c2c5"/><path d="M164.53,185.55c-.34.51-.88.64-1.69,1a2.26,2.26,0,0,1,1.12-1.46Z" transform="translate(-124.83 -71.42)" fill="#b65349"/><path d="M149.41,207.5c.34.12.57.32.39.7,0,.08-.33.13-.41.06a.64.64,0,0,1-.15-.86Z" transform="translate(-124.83 -71.42)" fill="#bbbbbf"/><path d="M329.85,157c.63.22,1.39.29,1.44,1.2A2.24,2.24,0,0,1,329.85,157Z" transform="translate(-124.83 -71.42)" fill="#b65349"/><path d="M168.35,165.58c0-.9.59-1.18,1.36-1.25A2.17,2.17,0,0,1,168.35,165.58Z" transform="translate(-124.83 -71.42)" fill="#b65349"/><path d="M195,148c-.6-.38-.49-1-.52-1.57l0,0c.58.39.51,1,.52,1.58Z" transform="translate(-124.83 -71.42)" fill="#c2c2c5"/><path d="M268.31,370l.71.21c-.38.48-.54.09-.74-.19Z" transform="translate(-124.83 -71.42)" fill="#c2c2c5"/><path d="M302.59,188a1,1,0,0,1,1,.56l0,0a1,1,0,0,1-1.08-.5Z" transform="translate(-124.83 -71.42)" fill="#c2c2c5"/><path d="M188.58,349c-.41-.06-.8-.16-1-.61v0a1.12,1.12,0,0,1,1.1.48Z" transform="translate(-124.83 -71.42)" fill="#c2c2c5"/><path d="M325,183.27c-.57.09-1.12.13-1.31-.61C324.42,182.27,324.72,182.77,325,183.27Z" transform="translate(-124.83 -71.42)" fill="#be1e1a"/><path d="M320,181.2c.49,0,.85.16.94.69A1.09,1.09,0,0,1,320,181.2Z" transform="translate(-124.83 -71.42)" fill="#b65349"/><path d="M331.37,158.3c.53-.12.7.17.75.62A1,1,0,0,1,331.37,158.3Z" transform="translate(-124.83 -71.42)" fill="#b65349"/><path d="M215.76,177.39c.05,0,.13,0,.14,0a.22.22,0,0,1,0,.19c-.09.21-.19.2-.24,0C215.69,177.52,215.74,177.45,215.76,177.39Z" transform="translate(-124.83 -71.42)" fill="#c2c2c5"/><path d="M238.23,162.73c.09-.25.46-.49.51-.37.27.57-.29.29-.49.4Z" transform="translate(-124.83 -71.42)" fill="#c2c2c5"/><path d="M187.6,188.58c-.1.25-.48.5-.52.39-.23-.61.33-.27.54-.38Z" transform="translate(-124.83 -71.42)" fill="#c2c2c5"/><path d="M236.62,370.48l.25-.67c.06.05.18.09.18.15a.53.53,0,0,1-.37.57Z" transform="translate(-124.83 -71.42)" fill="#c2c2c5"/><path d="M174.06,142.17a.94.94,0,0,1-.18,1A.85.85,0,0,1,174.06,142.17Z" transform="translate(-124.83 -71.42)" fill="#e9bfb2"/><path d="M304.14,189.13l.68.16c-.37.48-.47,0-.65-.19Z" transform="translate(-124.83 -71.42)" fill="#c2c2c5"/><path d="M222.42,370c-.08.28-.45.53-.51.4-.27-.58.3-.29.5-.4Z" transform="translate(-124.83 -71.42)" fill="#c2c2c5"/><path d="M146.47,254.51l.23.22s-.12,0-.14,0a.59.59,0,0,1-.06-.2Z" transform="translate(-124.83 -71.42)" fill="#bbbbbf"/><path d="M143.86,262.39c.22,0,.3.12.25.27s-.14,0-.18,0a1.47,1.47,0,0,1-.1-.22Z" transform="translate(-124.83 -71.42)" fill="#bbbbbf"/><path d="M346.86,262.41l-.21.26c0-.06,0-.13,0-.16a.63.63,0,0,1,.2-.1Z" transform="translate(-124.83 -71.42)" fill="#bbbbbf"/><path d="M195,148a.65.65,0,0,1,.53.53l0,0A.64.64,0,0,1,195,148Z" transform="translate(-124.83 -71.42)" fill="#c2c2c5"/><path d="M146.5,254.48l-.28-.2c.05,0,.13,0,.15,0a.93.93,0,0,1,.1.2Z" transform="translate(-124.83 -71.42)" fill="#bbbbbf"/><path d="M276.17,276.09l.3-.23-.22.3Z" transform="translate(-124.83 -71.42)" fill="#c2c2c5"/><path d="M187.08,252.92l.24.23s-.13,0-.16,0a.59.59,0,0,1-.07-.2Z" transform="translate(-124.83 -71.42)" fill="#c2c2c5"/><polygon points="179.61 181.15 179.66 181.28 179.53 181.26 179.61 181.15" fill="#c2c2c5"/><polygon points="180.66 180.6 180.72 180.75 180.56 180.73 180.66 180.6" fill="#c2c2c5"/><path d="M194.48,146.39l-.2-.1.18.12Z" transform="translate(-124.83 -71.42)" fill="#c2c2c5"/><path d="M146,249.22l.23.25c-.05,0-.13,0-.16,0a.6.6,0,0,1-.08-.2Z" transform="translate(-124.83 -71.42)" fill="#c2c2c5"/><path d="M268.37,324l.2.34-.33-.22Z" transform="translate(-124.83 -71.42)" fill="#c2c2c5"/><path d="M345.34,248.76,345,249l.2-.33Z" transform="translate(-124.83 -71.42)" fill="#c2c2c5"/><path d="M225.56,342.05c-.21,0-.29-.11-.25-.27l.29.24Z" transform="translate(-124.83 -71.42)" fill="#c2c2c5"/><path d="M146,249.23c-.22,0-.3-.13-.24-.28s.14,0,.16,0a.79.79,0,0,1,.09.23Z" transform="translate(-124.83 -71.42)" fill="#c2c2c5"/><path d="M226.05,342.61a.65.65,0,0,1-.49-.56l0,0a.64.64,0,0,1,.54.5Z" transform="translate(-124.83 -71.42)" fill="#c2c2c5"/><path d="M333.75,157.93c-.37,0-.56-.12-.54-.5Z" transform="translate(-124.83 -71.42)" fill="#b65349"/><path d="M187.61,348.37l-.25-.25c.06,0,.14,0,.17,0a.61.61,0,0,1,.09.2Z" transform="translate(-124.83 -71.42)" fill="#c2c2c5"/><path d="M149.41,207.5l-.17-.1A.27.27,0,0,0,149,207l.2-.1-.08-.2Z" transform="translate(-124.83 -71.42)" fill="#131315"/><path d="M327.35,198.6c.21-.26.38-.27.47.09l-.25,0Z" transform="translate(-124.83 -71.42)" fill="#b65349"/><path d="M292.65,351.68a.7.7,0,0,1,.56-.59A.7.7,0,0,1,292.65,351.68Z" transform="translate(-124.83 -71.42)" fill="#b65349"/><path d="M198.13,352.07l.48.64A.57.57,0,0,1,198.13,352.07Z" transform="translate(-124.83 -71.42)" fill="#b65349"/><path d="M292.06,352.61a.43.43,0,0,1,.34-.58Z" transform="translate(-124.83 -71.42)" fill="#b65349"/><path d="M200.61,353.12a.42.42,0,0,1-.35-.42C200.57,352.68,200.67,352.83,200.61,353.12Z" transform="translate(-124.83 -71.42)" fill="#b65349"/><path d="M265.66,362.6l.22.22c-.05,0-.12,0-.15,0a.84.84,0,0,1-.08-.19Z" transform="translate(-124.83 -71.42)" fill="#c2c2c5"/><path d="M303.61,188.59a.67.67,0,0,1,.53.54l0,0a.67.67,0,0,1-.54-.53Z" transform="translate(-124.83 -71.42)" fill="#c2c2c5"/><path d="M187.62,188.59l.25-.26c0,.06,0,.14-.05.16a.73.73,0,0,1-.22.09Z" transform="translate(-124.83 -71.42)" fill="#c2c2c5"/><path d="M320.89,181.89a.53.53,0,0,1,.61.45A.55.55,0,0,1,320.89,181.89Z" transform="translate(-124.83 -71.42)" fill="#b65349"/><path d="M321,206l-.23-.19a.5.5,0,0,1,.13,0,1.54,1.54,0,0,1,.08.19Z" transform="translate(-124.83 -71.42)" fill="#c2c2c5"/><path d="M356,252.24c.06,0,.15,0,.17,0a.35.35,0,0,1,0,.22c-.1.24-.22.23-.28,0C355.92,252.4,356,252.32,356,252.24Z" transform="translate(-124.83 -71.42)" fill="#fdfcfb"/><path d="M310.5,171.18l-.32-.33c.33-.06.13.29.28.36Z" transform="translate(-124.83 -71.42)" fill="#e9bfb2"/><path d="M174.64,139.1c-.2-.31-.26-.78-.81-.69a2.26,2.26,0,0,1,.94-1.77A2.88,2.88,0,0,1,174.64,139.1Z" transform="translate(-124.83 -71.42)" fill="#bf776c"/><path d="M180.25,171.73l.24-.63c0,.06.12.13.12.2,0,.26,0,.49-.4.39Z" transform="translate(-124.83 -71.42)" fill="#e9bfb2"/><path d="M209.5,291.47c-8.77-1.33-17.73-2.55-25.86-6.89-4.44-2.37-8.07-5.58-10.1-10.31a20.64,20.64,0,0,1-1.66-8.71c0-1.74.51-2.08,2.07-1.28,3.58,1.83,7.17,3.67,10.66,5.69a151.07,151.07,0,0,1,17.28,11.49,68.4,68.4,0,0,1,7.8,7,10.64,10.64,0,0,1,1,1.22c.29.42.74.86.4,1.41S210.17,291.46,209.5,291.47Zm-10.12-6.82-20.55-13.73a2,2,0,0,0,.42,2,16.75,16.75,0,0,0,4.4,4.48,55.75,55.75,0,0,0,15.68,7.82c.25.42.71.56,1,.23s-.31-.41-.5-.6A1.22,1.22,0,0,0,199.38,284.65Z" transform="translate(-124.83 -71.42)" fill="#1d0b07"/><path d="M279.43,291.07a8.47,8.47,0,0,1,2.22-2.83,84,84,0,0,1,15-12.27,218.32,218.32,0,0,1,19.06-11.13c.62-.33,1.24-.65,1.88-.94.89-.4,1.29,0,1.34.89.38,6.63-1.73,12.25-6.85,16.58-4.24,3.6-9.32,5.52-14.57,7a117.39,117.39,0,0,1-15.46,2.94A3.27,3.27,0,0,1,279.43,291.07Zm33.25-20.5-22,14.62a51.28,51.28,0,0,0,14.42-6.27,23.66,23.66,0,0,0,5.46-4.51A8.49,8.49,0,0,0,312.68,270.57Z" transform="translate(-124.83 -71.42)" fill="#1d0b07"/><path d="M199.33,285.22a55.75,55.75,0,0,1-15.68-7.82,16.75,16.75,0,0,1-4.4-4.48,2,2,0,0,1-.42-2l20.55,13.73C199.36,284.84,199.34,285,199.33,285.22Z" transform="translate(-124.83 -71.42)" fill="#b2b2b4"/><path d="M199.33,285.22c0-.19,0-.38,0-.57a1.22,1.22,0,0,1,.43.2c.19.19.75.28.5.6S199.58,285.64,199.33,285.22Z" transform="translate(-124.83 -71.42)" fill="#bf776c"/><path d="M312.68,270.57a8.49,8.49,0,0,1-2.09,3.84,23.66,23.66,0,0,1-5.46,4.51,51.28,51.28,0,0,1-14.42,6.27Z" transform="translate(-124.83 -71.42)" fill="#b2b2b4"/></svg>